<?xml version="1.0" encoding="UTF-8" standalone="no"?>
<svg width="76px" height="40px" viewBox="0 0 76 40" version="1.1" xmlns="http://www.w3.org/2000/svg" xmlns:xlink="http://www.w3.org/1999/xlink" xmlns:sketch="http://www.bohemiancoding.com/sketch/ns">
    <!-- Generator: Sketch 3.0.4 (8053) - http://www.bohemiancoding.com/sketch -->
    <title>eye-large-down-r</title>
    <desc>Created with Sketch.</desc>
    <defs></defs>
    <g id="style" stroke="none" stroke-width="1" fill="none" fill-rule="evenodd" sketch:type="MSPage">
        <g id="Desktop-HD" sketch:type="MSArtboardGroup" transform="translate(-439.000000, -335.000000)" fill="#FFFFFF">
            <path d="M515,354.720166 C512.559328,352.458362 510.232251,350.120016 507.720281,348.011298 C502.393929,343.540203 496.597932,339.825193 490.093979,337.374479 C485.200642,335.530547 480.130916,334.815404 474.919686,335.039915 C468.704845,335.307816 462.96292,337.244089 457.509454,340.158289 C450.765445,343.762044 444.785209,348.412259 439.495923,354.004577 C438.784042,354.757325 438.874962,355.148496 439.536477,355.852069 C446.184115,362.921624 453.810726,368.529963 462.779772,372.1286 C467.900082,374.183026 473.219021,375.275322 478.734844,374.940224 C484.379526,374.59756 489.722667,372.984592 494.783671,370.441092 C502.324813,366.651542 508.901372,361.529831 514.636101,355.269986 C514.708271,355.191217 514.75711,355.089976 515,354.720166 L515,354.720166 Z M468.635706,360.191399 C468.3747,353.173411 474.100786,346.983566 480.711512,346.632049 C489.149065,346.183725 494.246598,353.699227 494.385872,359.691414 C494.577134,367.924101 487.800392,373.454038 482.101262,373.698864 C474.928304,374.006807 468.430538,367.694998 468.635706,360.191399 L468.635706,360.191399 Z" id="Fill-12" sketch:type="MSShapeGroup"></path>
        </g>
    </g>
</svg>