<?xml version="1.0" encoding="UTF-8" standalone="no"?>
<svg width="99px" height="51px" viewBox="0 0 99 51" version="1.1" xmlns="http://www.w3.org/2000/svg" xmlns:xlink="http://www.w3.org/1999/xlink" xmlns:sketch="http://www.bohemiancoding.com/sketch/ns">
    <!-- Generator: Sketch 3.0.4 (8053) - http://www.bohemiancoding.com/sketch -->
    <title>eye-large-up-l</title>
    <desc>Created with Sketch.</desc>
    <defs></defs>
    <g id="style" stroke="none" stroke-width="1" fill="none" fill-rule="evenodd" sketch:type="MSPage">
        <g id="Desktop-HD" sketch:type="MSArtboardGroup" transform="translate(-806.000000, -649.000000)" fill="#FFFFFF">
            <path d="M806,674.856788 C809.179297,677.740588 812.21062,680.72198 815.482791,683.410595 C822.421066,689.111241 829.971115,693.847879 838.44337,696.972539 C844.817585,699.323552 851.42157,700.235361 858.209883,699.949108 C866.305531,699.607535 873.785143,697.138787 880.889,693.423182 C889.673959,688.828394 897.464004,682.89937 904.353995,675.769164 C905.281313,674.809411 905.162878,674.310668 904.301168,673.413612 C895.641744,664.399929 885.707081,657.249297 874.023718,652.661035 C867.353841,650.041642 860.425223,648.648964 853.240137,649.076215 C845.887196,649.513111 838.927053,651.569645 832.334428,654.812607 C822.511099,659.644284 813.944266,666.174466 806.474026,674.155768 C806.380016,674.256198 806.316396,674.385281 806,674.856788 L806,674.856788 Z M866.417429,668.724248 C866.756099,677.640226 859.326179,685.504092 850.74839,685.950676 C839.800189,686.520249 833.185853,676.972205 833.005136,669.359453 C832.756963,658.900265 841.550169,651.874777 848.945111,651.563737 C858.252428,651.172513 866.683646,659.191329 866.417429,668.724248 L866.417429,668.724248 Z" id="Fill-15" sketch:type="MSShapeGroup"></path>
        </g>
    </g>
</svg>