<?xml version="1.0" encoding="UTF-8" standalone="no"?>
<svg width="99px" height="51px" viewBox="0 0 99 51" version="1.1" xmlns="http://www.w3.org/2000/svg" xmlns:xlink="http://www.w3.org/1999/xlink" xmlns:sketch="http://www.bohemiancoding.com/sketch/ns">
    <!-- Generator: Sketch 3.0.4 (8053) - http://www.bohemiancoding.com/sketch -->
    <title>eye-large-down-l</title>
    <desc>Created with Sketch.</desc>
    <defs></defs>
    <g id="style" stroke="none" stroke-width="1" fill="none" fill-rule="evenodd" sketch:type="MSPage">
        <g id="Desktop-HD" sketch:type="MSArtboardGroup" transform="translate(-820.000000, -349.000000)" fill="#FFFFFF">
            <path d="M820,374.143212 C823.179297,371.259412 826.21062,368.27802 829.482791,365.589405 C836.421066,359.888759 843.971115,355.152121 852.44337,352.027461 C858.817585,349.676448 865.42157,348.764639 872.209883,349.050892 C880.305531,349.392465 887.785143,351.861213 894.889,355.576818 C903.673959,360.171606 911.464004,366.10063 918.353995,373.230836 C919.281313,374.190589 919.162878,374.689332 918.301168,375.586388 C909.641744,384.600071 899.707081,391.750703 888.023718,396.338965 C881.353841,398.958358 874.425223,400.351036 867.240137,399.923785 C859.887196,399.486889 852.927053,397.430355 846.334428,394.187393 C836.511099,389.355716 827.944266,382.825534 820.474026,374.844232 C820.380016,374.743802 820.316396,374.614719 820,374.143212 L820,374.143212 Z M880.417429,380.275752 C880.756099,371.359774 873.326179,363.495908 864.74839,363.049324 C853.800189,362.479751 847.185853,372.027795 847.005136,379.640547 C846.756963,390.099735 855.550169,397.125223 862.945111,397.436263 C872.252428,397.827487 880.683646,389.808671 880.417429,380.275752 L880.417429,380.275752 Z" id="Fill-4" sketch:type="MSShapeGroup"></path>
        </g>
    </g>
</svg>