<?xml version="1.0" encoding="UTF-8" standalone="no"?>
<svg width="50px" height="26px" viewBox="0 0 50 26" version="1.1" xmlns="http://www.w3.org/2000/svg" xmlns:xlink="http://www.w3.org/1999/xlink" xmlns:sketch="http://www.bohemiancoding.com/sketch/ns">
    <!-- Generator: Sketch 3.0.4 (8053) - http://www.bohemiancoding.com/sketch -->
    <title>eye-small-up</title>
    <desc>Created with Sketch.</desc>
    <defs></defs>
    <g id="style" stroke="none" stroke-width="1" fill="none" fill-rule="evenodd" sketch:type="MSPage">
        <g id="Desktop-HD" sketch:type="MSArtboardGroup" transform="translate(-716.000000, -577.000000)" fill="#FFFFFF">
            <path d="M766,590.181892 C764.394294,591.652064 762.863323,593.17199 761.210712,594.542656 C757.706533,597.448868 753.893376,599.863625 749.61446,601.456589 C746.395159,602.655144 743.059813,603.119988 739.631372,602.974055 C735.542661,602.79992 731.765079,601.541342 728.177273,599.647112 C723.740425,597.304671 719.806059,594.282032 716.326265,590.647025 C715.857922,590.157739 715.917738,589.903478 716.352946,589.446155 C720.726392,584.850944 725.743899,581.205524 731.644587,578.86641 C735.013212,577.531033 738.512514,576.821041 742.141345,577.038855 C745.854951,577.261586 749.370175,578.310015 752.699784,579.96329 C757.661061,582.426498 761.987744,585.75561 765.760593,589.824509 C765.808073,589.875709 765.840204,589.941516 766,590.181892 L766,590.181892 Z M731.390598,586.079777 C731.208757,590.793525 735.198085,594.951038 739.803735,595.18714 C745.682125,595.488265 749.233544,590.440352 749.330576,586.4156 C749.463826,580.885979 744.742513,577.171705 740.771965,577.007263 C735.774611,576.800428 731.247659,581.03986 731.390598,586.079777 L731.390598,586.079777 Z" id="Fill-8" sketch:type="MSShapeGroup"></path>
        </g>
    </g>
</svg>