<?xml version="1.0" encoding="UTF-8" standalone="no"?>
<svg width="76px" height="40px" viewBox="0 0 76 40" version="1.1" xmlns="http://www.w3.org/2000/svg" xmlns:xlink="http://www.w3.org/1999/xlink" xmlns:sketch="http://www.bohemiancoding.com/sketch/ns">
    <!-- Generator: Sketch 3.0.4 (8053) - http://www.bohemiancoding.com/sketch -->
    <title>eye-large-up-r</title>
    <desc>Created with Sketch.</desc>
    <defs></defs>
    <g id="style" stroke="none" stroke-width="1" fill="none" fill-rule="evenodd" sketch:type="MSPage">
        <g id="Desktop-HD" sketch:type="MSArtboardGroup" transform="translate(-425.000000, -635.000000)" fill="#FFFFFF">
            <path d="M501,655.279834 C498.559328,657.541638 496.232251,659.879984 493.720281,661.988702 C488.393929,666.459797 482.597932,670.174807 476.093979,672.625521 C471.200642,674.469453 466.130916,675.184596 460.919686,674.960085 C454.704845,674.692184 448.96292,672.755911 443.509454,669.841711 C436.765445,666.237956 430.785209,661.587741 425.495923,655.995423 C424.784042,655.242675 424.874962,654.851504 425.536477,654.147931 C432.184115,647.078376 439.810726,641.470037 448.779772,637.8714 C453.900082,635.816974 459.219021,634.724678 464.734844,635.059776 C470.379526,635.40244 475.722667,637.015408 480.783671,639.558908 C488.324813,643.348458 494.901372,648.470169 500.636101,654.730014 C500.708271,654.808783 500.75711,654.910024 501,655.279834 L501,655.279834 Z M454.635706,649.808601 C454.3747,656.826589 460.100786,663.016434 466.711512,663.367951 C475.149065,663.816275 480.246598,656.300773 480.385872,650.308586 C480.577134,642.075899 473.800392,636.545962 468.101262,636.301136 C460.928304,635.993193 454.430538,642.305002 454.635706,649.808601 L454.635706,649.808601 Z" id="Fill-14" sketch:type="MSShapeGroup"></path>
        </g>
    </g>
</svg>