<?xml version="1.0" encoding="UTF-8" standalone="no"?>
<svg width="50px" height="26px" viewBox="0 0 50 26" version="1.1" xmlns="http://www.w3.org/2000/svg" xmlns:xlink="http://www.w3.org/1999/xlink" xmlns:sketch="http://www.bohemiancoding.com/sketch/ns">
    <!-- Generator: Sketch 3.0.4 (8053) - http://www.bohemiancoding.com/sketch -->
    <title>eye-small-down</title>
    <desc>Created with Sketch.</desc>
    <defs></defs>
    <g id="style" stroke="none" stroke-width="1" fill="none" fill-rule="evenodd" sketch:type="MSPage">
        <g id="Desktop-HD" sketch:type="MSArtboardGroup" transform="translate(-375.000000, -401.000000)" fill="#FFFFFF">
            <path d="M425,413.818108 C423.394294,412.347936 421.863323,410.82801 420.210712,409.457344 C416.706533,406.551132 412.893376,404.136375 408.61446,402.543411 C405.395159,401.344856 402.059813,400.880012 398.631372,401.025945 C394.542661,401.20008 390.765079,402.458658 387.177273,404.352888 C382.740425,406.695329 378.806059,409.717968 375.326265,413.352975 C374.857922,413.842261 374.917738,414.096522 375.352946,414.553845 C379.726392,419.149056 384.743899,422.794476 390.644587,425.13359 C394.013212,426.468967 397.512514,427.178959 401.141345,426.961145 C404.854951,426.738414 408.370175,425.689985 411.699784,424.03671 C416.661061,421.573502 420.987744,418.24439 424.760593,414.175491 C424.808073,414.124291 424.840204,414.058484 425,413.818108 L425,413.818108 Z M390.390598,417.920223 C390.208757,413.206475 394.198085,409.048962 398.803735,408.81286 C404.682125,408.511735 408.233544,413.559648 408.330576,417.5844 C408.463826,423.114021 403.742513,426.828295 399.771965,426.992737 C394.774611,427.199572 390.247659,422.96014 390.390598,417.920223 L390.390598,417.920223 Z" id="Fill-6" sketch:type="MSShapeGroup"></path>
        </g>
    </g>
</svg>