<?xml version="1.0" encoding="UTF-8" standalone="no"?>
<svg width="819px" height="791px" viewBox="0 0 819 791" version="1.1" xmlns="http://www.w3.org/2000/svg" xmlns:xlink="http://www.w3.org/1999/xlink" xmlns:sketch="http://www.bohemiancoding.com/sketch/ns">
    <!-- Generator: Sketch 3.0.4 (8054) - http://www.bohemiancoding.com/sketch -->
    <title>australia-outline</title>
    <desc>Created with Sketch.</desc>
    <defs>
        <path d="M627.018877,670.181005 C630.185921,667.756777 632.76881,665.678675 632.546754,665.482288 C630.440877,665.809432 628.340994,665.809432 626.248606,665.482288 C627.65902,660.822739 639.048745,656.020627 640.162387,664.653924 C640.637521,668.338044 633.005401,672.740981 632.016163,670.074308 C639.463925,674.69334 643.497318,665.248185 647.223447,668.160967 C647.586168,668.444591 643.97545,683.973421 653.962256,678.10434 C650.636318,677.639135 651.064988,679.426421 655.246766,683.466198 C656.754605,682.5598 658.269937,681.666907 659.792764,680.789021 C660.12251,683.97042 661.439995,686.646097 663.742221,688.817552 C665.308515,686.491529 665.972503,683.943408 665.737185,681.171689 C668.226767,681.479324 655.652953,680.786019 661.480464,678.494512 C674.121725,673.441789 681.632439,667.286082 694.601947,660.510602 C693.119589,661.287944 688.747457,662.907156 690.598531,658.979929 C689.65276,660.998316 746.115761,656.649403 735.186181,642.888351 C732.816507,639.799993 744.018877,595.758622 748.977057,595.758622 C749.696502,596.516455 750.507378,597.157237 751.408184,597.683969 C749.225865,598.782452 764.382189,569.195439 764.473618,567.721791 C763.061706,567.050996 761.595835,566.540771 760.076006,566.194119 C765.191565,563.21831 762.47266,565.028106 766.524039,560.427082 C765.318967,560.805248 764.115394,561.189417 762.914819,561.58109 C764.589029,562.470981 778.36042,544.719674 782.155496,542.228578 C781.329632,542.770316 775.977256,540.262713 778.006692,539.848531 C799.691986,535.409579 817.140044,465.738435 816.999153,444.12743 C816.973672,440.197202 798.266584,383.355201 809.191668,383.355201 C808.783982,384.042503 808.316342,384.683285 807.788748,385.280548 C810.865878,387.130862 798.548367,364.831053 799.333762,366.838937 C798.898256,365.735861 798.410138,364.665306 797.875447,363.624758 L797.875447,363.624758 C798.186205,358.246884 798.175672,353.31375 798.80602,353.053118 C798.309774,353.274983 796.988066,356.151498 795.676562,359.877681 C786.931175,346.64971 770.917973,338.422476 762.958286,328.815213 C769.71508,336.978803 763.545833,306.84705 766.613969,306.150744 C766.095369,307.078152 765.410397,307.84649 764.557554,308.458759 C765.372925,306.326321 765.212549,304.274919 764.077923,302.309054 C763.803634,304.717614 763.353981,304.376964 762.727463,301.287105 C762.412706,300.634318 763.208593,309.314136 763.21159,309.224096 C763.265549,307.774458 751.337738,297.409399 751.62102,297.316359 C743.635172,299.942514 754.750609,305.975167 750.970521,308.841428 C753.713408,306.791526 745.661611,305.500958 743.414842,306.539415 C743.169031,306.651965 742.813805,286.667675 741.401893,283.10961 C741.377911,283.049584 722.15522,259.234109 724.787193,256.984619 C726.4644,258.03058 728.216551,258.927974 730.045142,259.676804 C735.941599,250.879934 717.79358,251.049509 717.834049,251.055512 C718.204264,251.103533 709.854197,240.860027 708.205467,240.860027 C708.670109,240.860027 696.643374,237.749159 701.752938,232.019639 C700.180649,233.947987 700.177652,234.638291 701.740947,234.09055 C701.829379,233.197657 683.721829,228.023382 681.226252,225.487266 C672.528453,216.649879 678.679714,197.783581 673.976337,187.028351 C666.270773,169.410602 659.250182,153.268002 661.819203,131.766545 C661.243646,135.884356 642.383676,113.326435 644.960191,113.326435 C640.973263,113.326435 637.176687,120.293999 633.72035,120.988805 C621.66214,123.413871 627.644031,84.2316378 625.822934,83.7574292 C624.626856,84.2856616 623.38881,84.6698305 622.105798,84.9114368 C620.095846,83.6343751 618.021445,67.4242454 619.968445,63.7866455 C615.420948,71.9547381 606.601742,33.4748135 605.195825,40.9826156 C605.068424,41.665416 608.954929,33.1566736 605.491098,34.7848897 C593.738652,40.3103199 596.665897,77.6107257 586.860451,77.6107257 C586.676093,77.6107257 593.79261,75.1346367 595.276467,76.8438885 C594.147837,78.0038987 592.795878,78.7707359 591.219093,79.1444003 C594.849296,79.6906405 595.396375,81.3563732 592.857331,84.1415982 C592.526086,82.4893715 591.751183,81.0817524 590.53562,79.9187409 C580.487361,87.4850687 593.57228,95.1744508 588.31583,101.043532 C587.379051,99.3958074 587.17371,97.6040194 587.698305,95.6666672 C590.40522,106.385882 586.728553,135.965392 582.507804,144.832792 C577.708502,154.921729 573.333372,172.980672 570.209779,184.364679 C565.464434,201.652283 551.956841,190.634437 542.854353,187.948255 C535.382609,185.724277 538.525688,181.610968 533.970697,176.321141 C530.169625,171.93021 520.440621,174.323763 515.605346,171.325444 C507.397669,166.299734 502.316583,156.209296 492.616057,152.517672 C483.763876,148.991121 473.340906,139.457428 462.193994,132.156717 C457.057389,128.789762 465.933367,120.402575 471.211818,113.125555 L471.211818,113.125555 C472.588199,113.333419 473.964948,113.538712 475.342154,113.741339 C473.954185,112.476318 473.305905,111.306949 473.12346,110.230182 C474.064926,108.604041 474.669605,107.087154 474.703038,105.76114 C475.973046,104.112164 477.364496,102.847021 476.370839,101.937788 C479.028879,104.361197 467.437676,99.182448 472.475184,99.182448 C471.654428,99.182448 470.855846,99.5880662 470.104423,100.261282 C468.680395,98.6922262 467.871833,97.0086876 470.058435,96.4920303 C474.45155,95.4550742 471.55728,90.3288195 476.776259,93.3661554 C478.08625,91.880502 479.102467,90.2147693 479.821913,88.3689575 C479.884865,89.907134 479.989784,91.4423093 480.133673,92.9759838 C486.031629,92.9759838 483.086398,88.8596733 482.515338,87.2164506 C483.861301,87.2434625 485.205765,87.2434625 486.551728,87.2164506 C484.904498,78.0489185 490.773976,81.2498263 493.3385,72.6210311 C492.122936,76.8138753 481.846853,60.5362159 484.625712,62.6341386 C476.920149,56.6885235 480.511382,73.3863677 480.502389,73.2978288 C478.634828,75.1556459 476.422532,75.5998413 473.869998,74.6274136 C473.155049,74.1982248 473.212005,65.6024441 473.84152,66.088658 C471.800093,67.4722665 469.775153,68.878385 467.768199,70.3100147 C464.754021,68.34415 469.006245,64.0477604 470.821347,63.7866455 C470.996712,63.7611343 441.23564,74.8164967 445.897049,64.4544392 C443.677259,69.3901101 440.17146,63.4099798 436.47231,67.6268345 C438.774536,65.0351947 430.673277,61.7502498 431.100448,58.4112813 C431.221854,57.4643648 422.879282,61.4261073 423.012679,61.4786304 C419.294044,60.0920205 415.338591,52.7267811 410.896013,49.5768957 C414.830482,52.4041392 396.360212,44.6442261 399.440339,45.346535 C401.4383,45.8147409 394.474664,44.5796977 395.736692,44.5796977 C396.325738,46.5815782 396.550565,48.6284785 396.411173,50.7218993 C395.018745,48.8325683 393.671283,46.9132241 392.365789,44.9638667 C392.006066,44.8198033 388.687623,49.1101904 387.650422,48.8100584 C391.743768,49.9535613 407.189369,53.2009896 407.189369,57.2542724 C407.189369,56.5684707 406.99302,65.9776092 406.507394,67.6268345 C407.833872,62.9462759 397.99845,74.1427004 399.780577,72.6210311 C404.990563,68.4521975 389.868713,70.5351137 389.784777,70.5561229 C396.303256,68.8288632 375.899475,73.3773638 377.89144,65.5919395 C378.339595,67.0925996 378.230179,68.5407365 377.564692,69.9348497 C376.089828,67.8264223 374.292713,67.0565837 372.174844,67.6268345 C372.333722,68.5212279 368.790451,78.1419594 369.838144,78.3790637 C368.699022,75.9660023 366.900408,74.1727136 364.445299,73.0021988 C363.746837,72.9106585 363.646414,80.8776626 365.13177,80.6840775 C358.473899,81.5349517 365.635382,80.1048227 361.087885,78.3790637 C358.204107,77.2835818 352.868218,97.0067567 358.770671,95.2839989 C349.890012,97.8276177 333.582575,116.458312 347.416918,121.784154 C341.55943,119.54667 352.144276,135.37113 352.127788,126.008512 C352.144276,130.375433 347.85458,129.182408 346.231331,128.768226 C346.198356,128.759222 347.153121,140.833533 355.847922,141.142669 C352.147273,141.012111 336.38092,130.603533 337.707398,129.077362 C337.049405,131.861087 336.613241,134.679326 336.398906,137.533582 C342.271382,127.342599 314.698624,129.210921 317.407037,131.889599 C315.672873,130.174345 318.718527,144.307561 318.991317,143.675783 C318.157959,140.976096 316.692088,138.671082 314.595203,136.765244 C312.5223,137.77969 315.19624,145.344517 308.946055,146.363465 C339.012892,141.432296 286.067681,95.6111428 286.620755,105.0638 C287.584512,106.646997 288.800076,107.994589 290.268944,109.106579 C287.449616,111.729732 286.649233,112.528083 283.591588,114.866112 C282.125718,116.006613 282.344549,107.400328 282.539399,107.95107 C281.942859,106.28984 276.50205,114.866112 275.86654,114.866112 C277.52726,114.866112 273.72469,103.930802 272.117928,107.185734 C274.848824,101.633292 270.813932,114.918635 270.797445,110.641754 C270.810935,113.095333 274.898286,119.86331 269.886147,123.698997 C268.682574,122.768587 268.225426,121.491526 268.513205,119.866311 C267.255674,121.105856 265.921701,122.258363 264.512787,123.323832 C262.772627,121.351964 268.564165,114.866112 263.775355,114.866112 C263.387154,117.285176 263.183311,119.719246 263.160828,122.168323 C262.91202,122.45495 257.561142,121.596572 258.120211,121.404487 C258.626821,121.245418 254.139278,126.359667 254.130285,126.391181 C253.845505,127.407128 261.245304,134.194613 260.578318,135.225566 C258.94008,137.75718 251.573255,134.038544 252.671909,132.18673 C251.304962,134.488742 248.962267,133.765424 248.172375,135.615738 C249.393934,136.654195 250.735401,136.654195 252.198274,135.615738 C250.64547,136.625682 249.76265,138.033301 249.551313,139.838595 C249.624756,139.853602 258.592348,143.177564 256.985586,145.9883 C257.415754,145.243973 244.957352,138.642569 245.179181,138.298918 C244.704047,139.038744 236.52335,156.161275 241.315158,154.822686 C240.504283,155.061291 246.922338,147.736569 246.947819,147.900141 C247.048241,148.55743 240.673652,159.716338 242.373343,160.19805 C241.821768,158.966008 241.141292,157.813501 240.330417,156.740529 C234.981038,164.982154 246.628565,162.237447 249.777639,164.032236 C249.253043,163.727602 239.167313,165.463866 238.731149,164.032236 C240.173038,164.712035 240.466812,165.543401 239.61247,166.521831 C236.907054,164.33687 234.143183,162.229944 231.320858,160.19805 C231.739035,161.238007 232.197682,162.259957 232.6938,163.265399 C234.357518,160.013469 225.323978,165.971089 229.363366,164.803576 C230.6164,164.443417 227.106105,158.293712 224.270289,158.655371 C227.115098,158.268201 221.134705,162.124897 226.897765,160.484676 C230.190728,159.548264 216.978407,170.500081 221.687779,165.165235 C220.091509,166.972029 231.145493,174.034136 231.1365,174.02063 C230.919167,173.676978 228.216749,181.926107 228.549493,181.698006 C227.196035,180.404437 225.731664,179.254932 224.157876,178.246488 C222.915333,183.509303 225.640234,193.116528 227.752107,198.98561 C226.678934,196.068327 216.140552,171.196387 215.708885,170.945777 C209.722497,167.605308 215.699892,168.432172 213.291248,164.803576 C209.370268,158.899979 208.715273,174.031134 208.701783,172.865121 C208.620846,167.378708 183.560152,196.976226 195.702298,200.528288 C197.168169,200.07659 198.667014,199.878503 200.198834,199.935528 C203.46182,202.999875 183.422259,215.543893 186.196621,216.864474 C198.515631,222.730554 150.996239,245.136909 148.476681,246.236892 C144.213965,248.120221 128.275244,254.98424 123.492428,254.915209 C111.495671,254.742633 100.633539,263.524496 89.9677557,263.524496 C90.0666795,262.109374 90.032206,260.698753 89.8658342,259.294135 C78.4116585,266.038101 68.7366121,280.624517 56.1762885,285.407121 C47.3346001,288.774602 44.3728818,305.820599 37.9728124,305.001239 C35.9193944,304.744626 36.8546738,288.840631 38.1736577,289.251812 C30.400646,286.703691 26.3597591,332.179692 24.7589923,337.226412 C19.4395904,353.996288 51.1506602,382.46681 41.5925238,394.105929 C36.8082096,399.961505 35.7665122,386.275485 35.3183574,384.897879 C35.4142835,385.193509 33.6111726,391.683864 32.2232419,389.887574 C30.235773,387.310941 33.0251241,375.694331 27.0147545,374.520815 C25.3450408,376.261581 25.0902371,378.182426 26.2503434,380.286351 C26.5890824,379.684586 26.7839323,379.042304 26.8363919,378.361004 C27.5303573,380.814583 36.4634752,396.85814 34.5494498,398.718958 C32.8962234,400.311159 29.5148284,399.737906 30.5295467,396.802615 C30.4845813,397.808058 30.0768954,398.574895 29.3094866,399.103127 C24.9868168,389.911585 28.1733619,395.42501 27.9755143,395.291451 C26.9188284,394.58464 26.6940016,385.495142 24.8339346,386.045884 C24.0965027,386.266481 26.3237868,393.399118 24.7829738,392.954923 C24.1294773,390.694929 23.7083018,388.391416 23.5179484,386.045884 C25.6747868,386.863744 21.5469669,389.120737 21.0133779,389.120737 C34.5524475,389.120737 49.3430528,448.94755 56.714374,459.366633 C60.6203648,464.889062 80.0409033,541.635817 77.9560095,541.988472 C76.5186168,540.549339 76.1124298,538.885107 76.7344506,536.998778 C73.0472911,541.679336 78.8748016,552.566625 78.6110049,554.278878 C77.2710372,562.838643 69.5130139,559.111003 65.4016813,559.654242 C61.1734387,560.21849 65.7748938,577.554115 71.2981387,578.910712 C80.2597347,581.110679 84.0188387,592.694274 92.8830098,592.694274 C95.099802,592.694274 109.232414,592.63875 113.369227,593.461111 C116.031176,593.984842 129.173052,598.890499 132.463017,591.924436 C135.180424,586.139391 154.026905,580.830056 153.975944,579.63403 C152.988205,556.924542 198.265324,572.968098 208.727264,569.686155 C211.531603,568.806768 228.606449,570.307428 228.59146,568.803766 C228.615442,571.138793 242.102052,546.862616 246.271839,546.442431 C257.886392,545.273417 264.142572,535.813256 274.80236,532.483292 C285.034976,529.286886 295.667785,533.151085 305.949864,530.086738 C315.582942,527.202469 327.777548,518.096464 337.128843,516.639323 C347.955003,514.967588 360.378932,517.575735 370.452671,515.872486 C383.645507,513.618494 411.114845,525.019009 420.900806,526.239045 C428.1777,527.199468 425.882968,533.349173 428.293111,536.23194 C431.151409,539.642941 435.208783,529.451958 436.667159,539.303792 C437.407589,544.376022 432.011746,539.525889 431.818395,540.838967 C431.433192,543.432107 438.312892,549.086594 437.241217,551.586694 C439.603397,546.040254 442.307314,554.831121 444.951277,552.746704 C442.619074,554.565504 463.331617,582.88596 460.404372,584.626726 C456.873093,586.733653 452.76176,575.517719 452.731783,584.236554 C452.707802,586.22793 469.256553,593.588668 469.268543,592.694274 C469.481379,590.900985 469.502363,589.107697 469.332994,587.312907 C468.484647,588.406888 467.411474,589.04767 466.110476,589.236753 C466.194412,582.200159 487.582934,564.522383 486.439315,563.761549 C492.855872,568.029426 509.707389,538.699026 504.73572,536.23194 C518.438163,542.806332 498.627925,568.400089 497.70014,573.485826 C494.29926,592.076002 499.288916,584.239556 488.776015,591.541767 C487.777784,592.232071 485.319678,599.672343 485.77083,600.361146 C495.255523,614.336793 511.532983,573.274233 510.202008,573.866993 C508.754124,574.507775 519.202574,589.236753 518.22233,589.236753 C522.207759,589.236753 509.879757,608.574259 509.867766,608.412187 C508.817075,590.43428 540.700512,624.880431 540.971803,625.275104 C537.623383,620.384453 532.753635,606.113176 525.208447,606.113176 C537.684836,606.113176 542.977258,639.993578 538.95136,638.49742 C536.742062,637.675058 546.668914,652.285484 545.962958,651.701727 C554.233587,658.546238 556.477358,659.93885 565.1197,665.101121 C576.62034,671.959137 579.189361,665.935488 591.662751,671.607983 C600.664816,675.707786 607.286715,686.565061 616.342738,678.213888 C616.734067,677.852224 621.633776,674.272643 625.945971,670.998758 C627.81471,671.753295 630.449521,672.524871 630.325221,672.431019 C633.217811,672.431019 629.77801,670.96033 627.018877,670.181005 L627.018877,670.181005 Z M57.7998048,144.678984 C60.0414132,147.701774 53.9519101,145.426947 57.7998048,144.678984 Z M129.267559,386.720554 C123.151093,383.631054 129.219694,382.569134 129.267559,386.720554 Z M133.427432,393.79562 C135.67299,401.158464 127.179411,385.42998 133.427432,393.79562 Z M515.204532,206.554273 C517.08215,207.300416 514.183849,206.681663 515.204532,206.554273 Z M516.484575,190.17552 C515.691318,192.181007 515.691318,192.181007 516.484575,190.17552 Z M515.179157,183.806005 C514.913525,185.067169 514.913525,185.067169 515.179157,183.806005 Z M689.64214,178.34642 C689.956896,179.26363 689.873204,178.60848 689.64214,178.34642 Z M356.866156,59.9928426 C354.044922,56.7231871 341.568066,48.7188013 345.695454,42.7667436 C345.327206,43.3004713 353.852532,49.8642512 350.485689,46.285676 C346.952008,42.5327599 354.153142,51.4317895 354.153142,50.59373 C354.127591,43.1322477 356.319044,50.298574 361.471515,45.7366552 C373.432824,35.1492721 365.72516,66.8135459 356.866156,59.9928426 Z M349.339765,57.2309395 C348.747654,57.3447875 338.326504,57.0324354 338.500482,57.2309395 C339.614527,58.4920244 342.333851,46.7467117 342.744674,46.4066275 C342.80023,46.3613802 350.235973,55.8706026 349.339765,57.2309395 Z M461.307692,61.8752887 C466.15942,59.4488068 466.15942,59.4488068 461.307692,61.8752887 Z M238.431438,121.020321 C240.2381,112.796218 238.433258,121.092098 238.431438,121.020321 Z M227.860013,140.12933 C227.896953,140.094714 226.735542,134.738642 228.479137,135.693735 C231.023602,137.805324 230.816735,139.28438 227.860013,140.12933 Z M3.72909699,366.702079 C4.04203344,364.882217 4.3567893,363.062356 4.67154515,361.242494 C2.47917057,361.242494 6.66924415,366.702079 3.72909699,366.702079 Z M6.75139072,385.810624 C6.21571989,384.413425 -1.15051059,373.463395 1.6216616,372.208799 C3.78250325,371.230305 9.18309416,385.810624 6.75139072,385.810624 Z M459.488294,591.454965 C457.06243,587.815242 457.06243,587.815242 459.488294,591.454965 Z M481.728575,604.193995 C485.918613,605.458521 488.599941,607.510195 488.558485,609.930002 C490.330738,609.106938 492.12816,608.342237 493.949272,607.635899 C504.239294,622.132298 431.896738,604.193995 481.728575,604.193995 Z M603.235796,697.916859 C606.905605,700.735541 604.334939,710.932624 601.224391,708.450061 C597.363547,705.367496 601.260383,699.566496 603.235796,697.916859 Z M679.351276,700.757561 C681.32322,704.0907 686.936634,708.506857 684.484565,711.088989 C681.320102,714.41343 668.539101,699.210601 679.351276,700.757561 Z M632.271926,777.283745 C631.185821,775.305647 616.748431,758.646798 622.770011,755.696872 C625.374262,754.361169 627.352952,767.644823 629.643673,759.479366 C630.510756,756.42462 611.292406,734.393012 614.498215,721.575058 C614.366202,722.099156 660.116105,732.3071 659.760571,737.864042 C657.973899,735.197129 656.173726,732.539201 654.361552,729.888759 C657.676871,725.54473 672.538801,726.892412 675.95463,723.053016 C682.880796,715.240952 683.705876,757.72738 680.749091,757.207773 C679.817502,755.288075 679.443966,753.268049 679.631484,751.146199 C681.247139,753.345915 670.561611,766.752358 670.836137,770.846317 C670.683122,768.480386 676.283161,774.453612 673.084854,778.042939 C672.495297,778.715283 667.12178,776.529043 666.818751,775.393995 C667.778843,772.825912 669.562515,772.134102 672.171266,773.318565 C672.748821,773.296103 661.497738,773.364985 663.546936,773.880099 C663.981978,771.699849 663.168899,770.058671 661.109201,768.958064 C658.746474,773.947483 640.033673,799.938282 634.775667,781.44359 C634.697659,781.171059 641.727336,780.690386 640.674234,780.317527 C640.63523,780.302553 633.043,777.283745 635.029191,777.283745 C631.232325,777.283745 635.23171,785.904418 632.271926,777.283745 Z M675.086957,767.981524 C678.725753,765.555042 678.725753,765.555042 675.086957,767.981524 Z M661.441472,779.810624 C665.268757,773.668591 661.948498,779.810624 661.441472,779.810624 Z M656.892977,785.124 C657.190436,782.664823 658.407607,780.893697 660.541273,779.810624 C663.749008,786.12127 657.391422,785.334463 656.892977,785.124 Z M597.941378,15.4815612 C599.50424,16.074836 597.149939,15.4688222 597.923184,15.4688222 L597.941378,15.4815612 Z M590.871626,20.9442226 C590.414957,21.4082872 590.300335,20.8277514 590.871626,20.9442226 Z M583.513897,18.1986143 C582.942606,15.1756176 583.306486,16.4510737 583.513897,18.1986143 Z M583.613027,31.7335013 C580.900305,28.5747459 583.129067,30.5235052 583.722191,31.8475751 L583.613027,31.7335013 Z M584.227553,28.5193893 C583.681734,24.9524608 585.397426,30.5357957 584.222095,28.5193893 L584.227553,28.5193893 Z M570.568669,6.36951501 C571.116308,6.36951501 570.321231,6.89909469 570.497713,6.5023649 L570.568669,6.36951501 Z M570.664832,3.66506213 C570.664832,4.38208753 570.229996,3.48125612 570.664832,3.66506213 Z M587.530386,4.54965358 C589.619055,5.18478522 585.31254,4.60970901 587.468527,4.60970901 L587.530386,4.54965358 Z M598.751774,10.9191686 C600.327372,11.6179954 598.238704,11.0156212 598.757232,10.9191686 L598.751774,10.9191686 Z M595.986809,12.7536208 C596.339773,12.6407894 596.061405,13.2322444 595.943144,12.8264153 L595.986809,12.7536208 Z M595.096173,10.9191686 C595.390915,11.0520185 594.987009,11.3504758 595.037952,11.0392794 L595.096173,10.9191686 Z M593.430772,9.09930716 C593.772819,10.0656536 592.957729,9.35590762 593.299775,9.09930716 L593.430772,9.09930716 Z M612.439192,3.63972286 C612.864931,3.96001848 612.017092,3.76347344 612.439192,3.67430023 L612.439192,3.63972286 Z M607.115369,5.49416166 C606.886125,5.75804157 606.709643,5.67250808 607.048051,5.4595843 L607.115369,5.49416166 Z M609.857189,9.09930716 C611.119851,9.26491455 608.989336,9.56337182 609.76258,9.19393995 L609.857189,9.09930716 Z M616.39048,4.81618284 C616.521476,6.11192418 615.351603,3.93536991 616.39048,4.72882949 L616.39048,4.81618284 Z M623.361472,-1.11022302e-16 C623.523398,0.0818937644 623.301431,0.365792148 623.234114,0.0382170901 L623.361472,-1.11022302e-16 Z M625.187876,0.909930716 C625.453508,1.2411455 624.814899,1.1701709 625.156946,0.909930716 L625.187876,0.909930716 Z M621.802598,12.73903 C622.597675,12.73903 620.814665,13.4069192 621.637033,12.857321 L621.802598,12.73903 Z M621.507505,13.6489607 C621.796789,13.6889977 621.67307,14.0074734 621.414716,13.7945497 L621.507505,13.6489607 Z" id="path-1"></path>
    </defs>
    <g id="Site" stroke="none" stroke-width="1" fill="none" fill-rule="evenodd" sketch:type="MSPage">
        <g id="Desktop-HD---WIP" sketch:type="MSArtboardGroup" transform="translate(-474.000000, -3.000000)">
            <g id="Rectangle-3-+-Imported-Layers-+-Oval-5-+-Oval-9" sketch:type="MSLayerGroup" transform="translate(-5.000000, 0.000000)">
                <g id="Rectangle-3-+-Imported-Layers">
                    <g id="Group-3" transform="translate(479.000000, 4.000000)">
                        <g id="Imported-Layers">
                            <g id="Fill-1">
                                <use stroke="#FFFFFF" sketch:type="MSShapeGroup" xlink:href="#path-1"></use>
                                <use stroke="#979797" xlink:href="#path-1"></use>
                            </g>
                        </g>
                    </g>
                </g>
            </g>
        </g>
    </g>
</svg>