<?xml version="1.0" encoding="UTF-8" standalone="no"?>
<svg width="887px" height="425px" viewBox="0 0 887 425" version="1.1" xmlns="http://www.w3.org/2000/svg" xmlns:xlink="http://www.w3.org/1999/xlink" xmlns:sketch="http://www.bohemiancoding.com/sketch/ns">
    <!-- Generator: Sketch 3.0.4 (8054) - http://www.bohemiancoding.com/sketch -->
    <title>stop-the-spies-eyes</title>
    <desc>Created with Sketch.</desc>
    <defs></defs>
    <g id="Site" stroke="none" stroke-width="1" fill="none" fill-rule="evenodd" sketch:type="MSPage">
        <g id="Desktop-HD---WIP" sketch:type="MSArtboardGroup" transform="translate(-274.000000, -3856.000000)">
            <g sketch:type="MSLayerGroup" transform="translate(274.000000, 3856.000000)" id="You-can-stop-the-spies">
                <g transform="translate(15.000000, 30.000000)">
                    <text id="YOU-CAN-STOP-THE-SPI" sketch:type="MSTextLayer" font-family="League Gothic" font-size="96" font-weight="normal" sketch:alignment="middle" fill="#EF6C00">
                        <tspan x="102.688" y="226">YOU CAN STOP THE SPIES</tspan>
                    </text>
                    <path d="M163,12.8181079 C161.394294,11.3479355 159.863323,9.8280101 158.210712,8.45734371 C154.706533,5.5511318 150.893376,3.13637544 146.61446,1.54341147 C143.395159,0.344855774 140.059813,-0.119987716 136.631372,0.0259447921 C132.542661,0.200080313 128.765079,1.4586578 125.177273,3.3528878 C120.740425,5.69532873 116.806059,8.71796847 113.326265,12.3529751 C112.857922,12.8422612 112.917738,13.0965222 113.352946,13.5538449 C117.726392,18.1490557 122.743899,21.7944758 128.644587,24.1335902 C132.013212,25.4689667 135.512514,26.1789594 139.141345,25.9611454 C142.854951,25.7384139 146.370175,24.689985 149.699784,23.03671 C154.661061,20.5735023 158.987744,17.2443898 162.760593,13.1754907 C162.808073,13.1242914 162.840204,13.0584843 163,12.8181079 L163,12.8181079 Z M128.390598,16.9202232 C128.208757,12.2064747 132.198085,8.048962 136.803735,7.8128597 C142.682125,7.51173497 146.233544,12.5596475 146.330576,16.5843998 C146.463826,22.1140214 141.742513,25.8282953 137.771965,25.9927372 C132.774611,26.1995719 128.247659,21.96014 128.390598,16.9202232 L128.390598,16.9202232 Z" id="Fill-5" fill="#FFFFFF" sketch:type="MSShapeGroup"></path>
                    <path d="M247,89.8181079 C245.394294,88.3479355 243.863323,86.8280101 242.210712,85.4573437 C238.706533,82.5511318 234.893376,80.1363754 230.61446,78.5434115 C227.395159,77.3448558 224.059813,76.8800123 220.631372,77.0259448 C216.542661,77.2000803 212.765079,78.4586578 209.177273,80.3528878 C204.740425,82.6953287 200.806059,85.7179685 197.326265,89.3529751 C196.857922,89.8422612 196.917738,90.0965222 197.352946,90.5538449 C201.726392,95.1490557 206.743899,98.7944758 212.644587,101.13359 C216.013212,102.468967 219.512514,103.178959 223.141345,102.961145 C226.854951,102.738414 230.370175,101.689985 233.699784,100.03671 C238.661061,97.5735023 242.987744,94.2443898 246.760593,90.1754907 C246.808073,90.1242914 246.840204,90.0584843 247,89.8181079 L247,89.8181079 Z M212.390598,93.9202232 C212.208757,89.2064747 216.198085,85.048962 220.803735,84.8128597 C226.682125,84.511735 230.233544,89.5596475 230.330576,93.5843998 C230.463826,99.1140214 225.742513,102.828295 221.771965,102.992737 C216.774611,103.199572 212.247659,98.96014 212.390598,93.9202232 L212.390598,93.9202232 Z" id="Fill-5" fill="#FFFFFF" sketch:type="MSShapeGroup"></path>
                    <path d="M149,312.181892 C147.394294,313.652064 145.863323,315.17199 144.210712,316.542656 C140.706533,319.448868 136.893376,321.863625 132.61446,323.456589 C129.395159,324.655144 126.059813,325.119988 122.631372,324.974055 C118.542661,324.79992 114.765079,323.541342 111.177273,321.647112 C106.740425,319.304671 102.806059,316.282032 99.3262652,312.647025 C98.8579225,312.157739 98.9177384,311.903478 99.3529457,311.446155 C103.726392,306.850944 108.743899,303.205524 114.644587,300.86641 C118.013212,299.531033 121.512514,298.821041 125.141345,299.038855 C128.854951,299.261586 132.370175,300.310015 135.699784,301.96329 C140.661061,304.426498 144.987744,307.75561 148.760593,311.824509 C148.808073,311.875709 148.840204,311.941516 149,312.181892 L149,312.181892 Z M114.390598,308.079777 C114.208757,312.793525 118.198085,316.951038 122.803735,317.18714 C128.682125,317.488265 132.233544,312.440352 132.330576,308.4156 C132.463826,302.885979 127.742513,299.171705 123.771965,299.007263 C118.774611,298.800428 114.247659,303.03986 114.390598,308.079777 L114.390598,308.079777 Z" id="Fill-5" fill="#FFFFFF" sketch:type="MSShapeGroup"></path>
                    <path d="M588,266.181892 C586.394294,267.652064 584.863323,269.17199 583.210712,270.542656 C579.706533,273.448868 575.893376,275.863625 571.61446,277.456589 C568.395159,278.655144 565.059813,279.119988 561.631372,278.974055 C557.542661,278.79992 553.765079,277.541342 550.177273,275.647112 C545.740425,273.304671 541.806059,270.282032 538.326265,266.647025 C537.857922,266.157739 537.917738,265.903478 538.352946,265.446155 C542.726392,260.850944 547.743899,257.205524 553.644587,254.86641 C557.013212,253.531033 560.512514,252.821041 564.141345,253.038855 C567.854951,253.261586 571.370175,254.310015 574.699784,255.96329 C579.661061,258.426498 583.987744,261.75561 587.760593,265.824509 C587.808073,265.875709 587.840204,265.941516 588,266.181892 L588,266.181892 Z M553.390598,262.079777 C553.208757,266.793525 557.198085,270.951038 561.803735,271.18714 C567.682125,271.488265 571.233544,266.440352 571.330576,262.4156 C571.463826,256.885979 566.742513,253.171705 562.771965,253.007263 C557.774611,252.800428 553.247659,257.03986 553.390598,262.079777 L553.390598,262.079777 Z" id="Fill-5" fill="#FFFFFF" sketch:type="MSShapeGroup"></path>
                    <path d="M450,51.3390954 C451.445135,50.0385583 452.823009,48.6940089 454.31036,47.4814964 C457.464121,44.9106166 460.895961,42.774486 464.746986,41.3653255 C467.644357,40.3050647 470.646168,39.893857 473.731765,40.0229512 C477.411605,40.1769941 480.811429,41.2903511 484.040455,42.9660161 C488.033618,45.0381754 491.574547,47.712049 494.706361,50.9276319 C495.12787,51.3604619 495.074035,51.5853851 494.682349,51.9899398 C490.746247,56.0549339 486.230491,59.2797286 480.919872,61.3489452 C477.888109,62.5302398 474.738738,63.1583103 471.47279,62.9656286 C468.130544,62.7685969 464.966842,61.8411406 461.970195,60.3786281 C457.505045,58.1996367 453.61103,55.2546526 450.215466,51.6552418 C450.172735,51.6099501 450.143816,51.5517361 450,51.3390954 L450,51.3390954 Z M479.566286,55.3503712 C479.722595,51.3790812 476.293401,47.8764149 472.334422,47.6775008 C467.281406,47.423806 464.228635,51.6766261 464.145228,55.067443 C464.030686,59.7260986 468.089089,62.8553404 471.502139,62.9938811 C475.797824,63.1681375 479.689155,59.5964549 479.566286,55.3503712 L479.566286,55.3503712 Z" id="Fill-2" fill="#FFFFFF" sketch:type="MSShapeGroup"></path>
                    <path d="M0,158.339095 C1.44513495,157.038558 2.82300929,155.694009 4.31035964,154.481496 C7.46412074,151.910617 10.8959612,149.774486 14.7469864,148.365326 C17.6443567,147.305065 20.6461682,146.893857 23.731765,147.022951 C27.4116048,147.176994 30.8114288,148.290351 34.0404546,149.966016 C38.0336178,152.038175 41.574547,154.712049 44.7063613,157.927632 C45.1278698,158.360462 45.0740354,158.585385 44.6823489,158.98994 C40.7462474,163.054934 36.2304912,166.279729 30.919872,168.348945 C27.8881095,169.53024 24.7387378,170.15831 21.4727896,169.965629 C18.1305438,169.768597 14.9668421,168.841141 11.9701946,167.378628 C7.50504514,165.199637 3.61103,162.254653 0.215466342,158.655242 C0.172734551,158.60995 0.14381636,158.551736 0,158.339095 L0,158.339095 Z M29.5662858,162.350371 C29.722595,158.379081 26.2934012,154.876415 22.3344217,154.677501 C17.2814058,154.423806 14.2286354,158.676626 14.1452277,162.067443 C14.0306864,166.726099 18.0890888,169.85534 21.5021392,169.993881 C25.7978241,170.168137 29.6891551,166.596455 29.5662858,162.350371 L29.5662858,162.350371 Z" id="Fill-2" fill="#FFFFFF" sketch:type="MSShapeGroup"></path>
                    <path d="M436,350.660905 C437.445135,351.961442 438.823009,353.305991 440.31036,354.518504 C443.464121,357.089383 446.895961,359.225514 450.746986,360.634674 C453.644357,361.694935 456.646168,362.106143 459.731765,361.977049 C463.411605,361.823006 466.811429,360.709649 470.040455,359.033984 C474.033618,356.961825 477.574547,354.287951 480.706361,351.072368 C481.12787,350.639538 481.074035,350.414615 480.682349,350.01006 C476.746247,345.945066 472.230491,342.720271 466.919872,340.651055 C463.888109,339.46976 460.738738,338.84169 457.47279,339.034371 C454.130544,339.231403 450.966842,340.158859 447.970195,341.621372 C443.505045,343.800363 439.61103,346.745347 436.215466,350.344758 C436.172735,350.39005 436.143816,350.448264 436,350.660905 L436,350.660905 Z M465.566286,346.649629 C465.722595,350.620919 462.293401,354.123585 458.334422,354.322499 C453.281406,354.576194 450.228635,350.323374 450.145228,346.932557 C450.030686,342.273901 454.089089,339.14466 457.502139,339.006119 C461.797824,338.831863 465.689155,342.403545 465.566286,346.649629 L465.566286,346.649629 Z" id="Fill-2" fill="#FFFFFF" sketch:type="MSShapeGroup"></path>
                    <path d="M337,30.720166 C334.559328,28.4583623 332.232251,26.1200155 329.720281,24.011298 C324.393929,19.5402028 318.597932,15.825193 312.093979,13.3744792 C307.200642,11.5305473 302.130916,10.8154035 296.919686,11.0399151 C290.704845,11.3078159 284.96292,13.2440889 279.509454,16.1582889 C272.765445,19.7620442 266.785209,24.4122592 261.495923,30.0045771 C260.784042,30.757325 260.874962,31.1484958 261.536477,31.8520691 C268.184115,38.9216241 275.810726,44.5299628 284.779772,48.1286003 C289.900082,50.1830257 295.219021,51.2753222 300.734844,50.9402237 C306.379526,50.5975599 311.722667,48.9845923 316.783671,46.4410923 C324.324813,42.651542 330.901372,37.5298305 336.636101,31.2699857 C336.708271,31.1912175 336.75711,31.0899759 337,30.720166 L337,30.720166 Z M290.635706,36.1913994 C290.3747,29.1734114 296.100786,22.9835663 302.711512,22.6320492 C311.149065,22.1837245 316.246598,29.6992271 316.385872,35.6914141 C316.577134,43.9241013 309.800392,49.4540377 304.101262,49.6988643 C296.928304,50.0068067 290.430538,43.6949975 290.635706,36.1913994 L290.635706,36.1913994 Z" id="Fill-4" fill="#FFFFFF" sketch:type="MSShapeGroup"></path>
                    <path d="M781,234.279834 C783.440672,236.541638 785.767749,238.879984 788.279719,240.988702 C793.606071,245.459797 799.402068,249.174807 805.906021,251.625521 C810.799358,253.469453 815.869084,254.184596 821.080314,253.960085 C827.295155,253.692184 833.03708,251.755911 838.490546,248.841711 C845.234555,245.237956 851.214791,240.587741 856.504077,234.995423 C857.215958,234.242675 857.125038,233.851504 856.463523,233.147931 C849.815885,226.078376 842.189274,220.470037 833.220228,216.8714 C828.099918,214.816974 822.780979,213.724678 817.265156,214.059776 C811.620474,214.40244 806.277333,216.015408 801.216329,218.558908 C793.675187,222.348458 787.098628,227.470169 781.363899,233.730014 C781.291729,233.808783 781.24289,233.910024 781,234.279834 L781,234.279834 Z M827.364294,228.808601 C827.6253,235.826589 821.899214,242.016434 815.288488,242.367951 C806.850935,242.816275 801.753402,235.300773 801.614128,229.308586 C801.422866,221.075899 808.199608,215.545962 813.898738,215.301136 C821.071696,214.993193 827.569462,221.305002 827.364294,228.808601 L827.364294,228.808601 Z" id="Fill-4" fill="#FFFFFF" sketch:type="MSShapeGroup"></path>
                    <path d="M323,331.279834 C320.559328,333.541638 318.232251,335.879984 315.720281,337.988702 C310.393929,342.459797 304.597932,346.174807 298.093979,348.625521 C293.200642,350.469453 288.130916,351.184596 282.919686,350.960085 C276.704845,350.692184 270.96292,348.755911 265.509454,345.841711 C258.765445,342.237956 252.785209,337.587741 247.495923,331.995423 C246.784042,331.242675 246.874962,330.851504 247.536477,330.147931 C254.184115,323.078376 261.810726,317.470037 270.779772,313.8714 C275.900082,311.816974 281.219021,310.724678 286.734844,311.059776 C292.379526,311.40244 297.722667,313.015408 302.783671,315.558908 C310.324813,319.348458 316.901372,324.470169 322.636101,330.730014 C322.708271,330.808783 322.75711,330.910024 323,331.279834 L323,331.279834 Z M276.635706,325.808601 C276.3747,332.826589 282.100786,339.016434 288.711512,339.367951 C297.149065,339.816275 302.246598,332.300773 302.385872,326.308586 C302.577134,318.075899 295.800392,312.545962 290.101262,312.301136 C282.928304,311.993193 276.430538,318.305002 276.635706,325.808601 L276.635706,325.808601 Z" id="Fill-4" fill="#FFFFFF" sketch:type="MSShapeGroup"></path>
                    <path d="M642,50.1432116 C645.179297,47.2594119 648.21062,44.2780198 651.482791,41.589405 C658.421066,35.8887585 665.971115,31.1521211 674.44337,28.027461 C680.817585,25.6764479 687.42157,24.7646395 694.209883,25.0508917 C702.305531,25.3924652 709.785143,27.8612134 716.889,31.5768184 C725.673959,36.1716064 733.464004,42.1006305 740.353995,49.2308359 C741.281313,50.1905894 741.162878,50.6893321 740.301168,51.5863881 C731.641744,60.6000708 721.707081,67.7507025 710.023718,72.3389654 C703.353841,74.9583577 696.425223,76.3510358 689.240137,75.9237852 C681.887196,75.4868888 674.927053,73.4303552 668.334428,70.1873927 C658.511099,65.3557161 649.944266,58.8255339 642.474026,50.8442317 C642.380016,50.7438023 642.316396,50.6147193 642,50.1432116 L642,50.1432116 Z M702.417429,56.2757519 C702.756099,47.3597742 695.326179,39.4959075 686.74839,39.0493239 C675.800189,38.4797514 669.185853,48.0277948 669.005136,55.6405474 C668.756963,66.0997355 677.550169,73.1252234 684.945111,73.4362625 C694.252428,73.8274869 702.683646,65.8086714 702.417429,56.2757519 L702.417429,56.2757519 Z" id="Fill-3" fill="#FFFFFF" sketch:type="MSShapeGroup"></path>
                    <path d="M628,350.856788 C631.179297,353.740588 634.21062,356.72198 637.482791,359.410595 C644.421066,365.111241 651.971115,369.847879 660.44337,372.972539 C666.817585,375.323552 673.42157,376.235361 680.209883,375.949108 C688.305531,375.607535 695.785143,373.138787 702.889,369.423182 C711.673959,364.828394 719.464004,358.89937 726.353995,351.769164 C727.281313,350.809411 727.162878,350.310668 726.301168,349.413612 C717.641744,340.399929 707.707081,333.249297 696.023718,328.661035 C689.353841,326.041642 682.425223,324.648964 675.240137,325.076215 C667.887196,325.513111 660.927053,327.569645 654.334428,330.812607 C644.511099,335.644284 635.944266,342.174466 628.474026,350.155768 C628.380016,350.256198 628.316396,350.385281 628,350.856788 L628,350.856788 Z M688.417429,344.724248 C688.756099,353.640226 681.326179,361.504092 672.74839,361.950676 C661.800189,362.520249 655.185853,352.972205 655.005136,345.359453 C654.756963,334.900265 663.550169,327.874777 670.945111,327.563737 C680.252428,327.172513 688.683646,335.191329 688.417429,344.724248 L688.417429,344.724248 Z" id="Fill-3" fill="#FFFFFF" sketch:type="MSShapeGroup"></path>
                </g>
            </g>
        </g>
    </g>
</svg>