<?xml version="1.0" encoding="UTF-8" standalone="no"?>
<svg width="887px" height="425px" viewBox="0 0 887 425" version="1.1" xmlns="http://www.w3.org/2000/svg" xmlns:xlink="http://www.w3.org/1999/xlink" xmlns:sketch="http://www.bohemiancoding.com/sketch/ns">
    <!-- Generator: Sketch 3.0.4 (8054) - http://www.bohemiancoding.com/sketch -->
    <title>stop-the-spies-eyes</title>
    <desc>Created with Sketch.</desc>
    <defs></defs>
    <g id="Site" stroke="none" stroke-width="1" fill="none" fill-rule="evenodd" sketch:type="MSPage">
        <g id="Desktop-HD---WIP" sketch:type="MSArtboardGroup" transform="translate(-274.000000, -3856.000000)">
            <g sketch:type="MSLayerGroup" transform="translate(274.000000, 3856.000000)" id="You-can-stop-the-spies">
                <g transform="translate(15.000000, 30.000000)" sketch:type="MSShapeGroup">
                    <path d="M163,12.8181079 C161.394294,11.3479355 159.863323,9.8280101 158.210712,8.45734371 C154.706533,5.5511318 150.893376,3.13637544 146.61446,1.54341147 C143.395159,0.344855774 140.059813,-0.119987716 136.631372,0.0259447921 C132.542661,0.200080313 128.765079,1.4586578 125.177273,3.3528878 C120.740425,5.69532873 116.806059,8.71796847 113.326265,12.3529751 C112.857922,12.8422612 112.917738,13.0965222 113.352946,13.5538449 C117.726392,18.1490557 122.743899,21.7944758 128.644587,24.1335902 C132.013212,25.4689667 135.512514,26.1789594 139.141345,25.9611454 C142.854951,25.7384139 146.370175,24.689985 149.699784,23.03671 C154.661061,20.5735023 158.987744,17.2443898 162.760593,13.1754907 C162.808073,13.1242914 162.840204,13.0584843 163,12.8181079 L163,12.8181079 Z M128.390598,16.9202232 C128.208757,12.2064747 132.198085,8.048962 136.803735,7.8128597 C142.682125,7.51173497 146.233544,12.5596475 146.330576,16.5843998 C146.463826,22.1140214 141.742513,25.8282953 137.771965,25.9927372 C132.774611,26.1995719 128.247659,21.96014 128.390598,16.9202232 L128.390598,16.9202232 Z" id="Fill-5" fill="#FFFFFF"></path>
                    <path d="M247,89.8181079 C245.394294,88.3479355 243.863323,86.8280101 242.210712,85.4573437 C238.706533,82.5511318 234.893376,80.1363754 230.61446,78.5434115 C227.395159,77.3448558 224.059813,76.8800123 220.631372,77.0259448 C216.542661,77.2000803 212.765079,78.4586578 209.177273,80.3528878 C204.740425,82.6953287 200.806059,85.7179685 197.326265,89.3529751 C196.857922,89.8422612 196.917738,90.0965222 197.352946,90.5538449 C201.726392,95.1490557 206.743899,98.7944758 212.644587,101.13359 C216.013212,102.468967 219.512514,103.178959 223.141345,102.961145 C226.854951,102.738414 230.370175,101.689985 233.699784,100.03671 C238.661061,97.5735023 242.987744,94.2443898 246.760593,90.1754907 C246.808073,90.1242914 246.840204,90.0584843 247,89.8181079 L247,89.8181079 Z M212.390598,93.9202232 C212.208757,89.2064747 216.198085,85.048962 220.803735,84.8128597 C226.682125,84.511735 230.233544,89.5596475 230.330576,93.5843998 C230.463826,99.1140214 225.742513,102.828295 221.771965,102.992737 C216.774611,103.199572 212.247659,98.96014 212.390598,93.9202232 L212.390598,93.9202232 Z" id="Fill-5" fill="#FFFFFF"></path>
                    <path d="M149,312.181892 C147.394294,313.652064 145.863323,315.17199 144.210712,316.542656 C140.706533,319.448868 136.893376,321.863625 132.61446,323.456589 C129.395159,324.655144 126.059813,325.119988 122.631372,324.974055 C118.542661,324.79992 114.765079,323.541342 111.177273,321.647112 C106.740425,319.304671 102.806059,316.282032 99.3262652,312.647025 C98.8579225,312.157739 98.9177384,311.903478 99.3529457,311.446155 C103.726392,306.850944 108.743899,303.205524 114.644587,300.86641 C118.013212,299.531033 121.512514,298.821041 125.141345,299.038855 C128.854951,299.261586 132.370175,300.310015 135.699784,301.96329 C140.661061,304.426498 144.987744,307.75561 148.760593,311.824509 C148.808073,311.875709 148.840204,311.941516 149,312.181892 L149,312.181892 Z M114.390598,308.079777 C114.208757,312.793525 118.198085,316.951038 122.803735,317.18714 C128.682125,317.488265 132.233544,312.440352 132.330576,308.4156 C132.463826,302.885979 127.742513,299.171705 123.771965,299.007263 C118.774611,298.800428 114.247659,303.03986 114.390598,308.079777 L114.390598,308.079777 Z" id="Fill-5" fill="#FFFFFF"></path>
                    <path d="M588,266.181892 C586.394294,267.652064 584.863323,269.17199 583.210712,270.542656 C579.706533,273.448868 575.893376,275.863625 571.61446,277.456589 C568.395159,278.655144 565.059813,279.119988 561.631372,278.974055 C557.542661,278.79992 553.765079,277.541342 550.177273,275.647112 C545.740425,273.304671 541.806059,270.282032 538.326265,266.647025 C537.857922,266.157739 537.917738,265.903478 538.352946,265.446155 C542.726392,260.850944 547.743899,257.205524 553.644587,254.86641 C557.013212,253.531033 560.512514,252.821041 564.141345,253.038855 C567.854951,253.261586 571.370175,254.310015 574.699784,255.96329 C579.661061,258.426498 583.987744,261.75561 587.760593,265.824509 C587.808073,265.875709 587.840204,265.941516 588,266.181892 L588,266.181892 Z M553.390598,262.079777 C553.208757,266.793525 557.198085,270.951038 561.803735,271.18714 C567.682125,271.488265 571.233544,266.440352 571.330576,262.4156 C571.463826,256.885979 566.742513,253.171705 562.771965,253.007263 C557.774611,252.800428 553.247659,257.03986 553.390598,262.079777 L553.390598,262.079777 Z" id="Fill-5" fill="#FFFFFF"></path>
                    <path d="M450,51.3390954 C451.445135,50.0385583 452.823009,48.6940089 454.31036,47.4814964 C457.464121,44.9106166 460.895961,42.774486 464.746986,41.3653255 C467.644357,40.3050647 470.646168,39.893857 473.731765,40.0229512 C477.411605,40.1769941 480.811429,41.2903511 484.040455,42.9660161 C488.033618,45.0381754 491.574547,47.712049 494.706361,50.9276319 C495.12787,51.3604619 495.074035,51.5853851 494.682349,51.9899398 C490.746247,56.0549339 486.230491,59.2797286 480.919872,61.3489452 C477.888109,62.5302398 474.738738,63.1583103 471.47279,62.9656286 C468.130544,62.7685969 464.966842,61.8411406 461.970195,60.3786281 C457.505045,58.1996367 453.61103,55.2546526 450.215466,51.6552418 C450.172735,51.6099501 450.143816,51.5517361 450,51.3390954 L450,51.3390954 Z M479.566286,55.3503712 C479.722595,51.3790812 476.293401,47.8764149 472.334422,47.6775008 C467.281406,47.423806 464.228635,51.6766261 464.145228,55.067443 C464.030686,59.7260986 468.089089,62.8553404 471.502139,62.9938811 C475.797824,63.1681375 479.689155,59.5964549 479.566286,55.3503712 L479.566286,55.3503712 Z" id="Fill-2" fill="#FFFFFF"></path>
                    <path d="M0,158.339095 C1.44513495,157.038558 2.82300929,155.694009 4.31035964,154.481496 C7.46412074,151.910617 10.8959612,149.774486 14.7469864,148.365326 C17.6443567,147.305065 20.6461682,146.893857 23.731765,147.022951 C27.4116048,147.176994 30.8114288,148.290351 34.0404546,149.966016 C38.0336178,152.038175 41.574547,154.712049 44.7063613,157.927632 C45.1278698,158.360462 45.0740354,158.585385 44.6823489,158.98994 C40.7462474,163.054934 36.2304912,166.279729 30.919872,168.348945 C27.8881095,169.53024 24.7387378,170.15831 21.4727896,169.965629 C18.1305438,169.768597 14.9668421,168.841141 11.9701946,167.378628 C7.50504514,165.199637 3.61103,162.254653 0.215466342,158.655242 C0.172734551,158.60995 0.14381636,158.551736 0,158.339095 L0,158.339095 Z M29.5662858,162.350371 C29.722595,158.379081 26.2934012,154.876415 22.3344217,154.677501 C17.2814058,154.423806 14.2286354,158.676626 14.1452277,162.067443 C14.0306864,166.726099 18.0890888,169.85534 21.5021392,169.993881 C25.7978241,170.168137 29.6891551,166.596455 29.5662858,162.350371 L29.5662858,162.350371 Z" id="Fill-2" fill="#FFFFFF"></path>
                    <path d="M436,350.660905 C437.445135,351.961442 438.823009,353.305991 440.31036,354.518504 C443.464121,357.089383 446.895961,359.225514 450.746986,360.634674 C453.644357,361.694935 456.646168,362.106143 459.731765,361.977049 C463.411605,361.823006 466.811429,360.709649 470.040455,359.033984 C474.033618,356.961825 477.574547,354.287951 480.706361,351.072368 C481.12787,350.639538 481.074035,350.414615 480.682349,350.01006 C476.746247,345.945066 472.230491,342.720271 466.919872,340.651055 C463.888109,339.46976 460.738738,338.84169 457.47279,339.034371 C454.130544,339.231403 450.966842,340.158859 447.970195,341.621372 C443.505045,343.800363 439.61103,346.745347 436.215466,350.344758 C436.172735,350.39005 436.143816,350.448264 436,350.660905 L436,350.660905 Z M465.566286,346.649629 C465.722595,350.620919 462.293401,354.123585 458.334422,354.322499 C453.281406,354.576194 450.228635,350.323374 450.145228,346.932557 C450.030686,342.273901 454.089089,339.14466 457.502139,339.006119 C461.797824,338.831863 465.689155,342.403545 465.566286,346.649629 L465.566286,346.649629 Z" id="Fill-2" fill="#FFFFFF"></path>
                    <path d="M337,30.720166 C334.559328,28.4583623 332.232251,26.1200155 329.720281,24.011298 C324.393929,19.5402028 318.597932,15.825193 312.093979,13.3744792 C307.200642,11.5305473 302.130916,10.8154035 296.919686,11.0399151 C290.704845,11.3078159 284.96292,13.2440889 279.509454,16.1582889 C272.765445,19.7620442 266.785209,24.4122592 261.495923,30.0045771 C260.784042,30.757325 260.874962,31.1484958 261.536477,31.8520691 C268.184115,38.9216241 275.810726,44.5299628 284.779772,48.1286003 C289.900082,50.1830257 295.219021,51.2753222 300.734844,50.9402237 C306.379526,50.5975599 311.722667,48.9845923 316.783671,46.4410923 C324.324813,42.651542 330.901372,37.5298305 336.636101,31.2699857 C336.708271,31.1912175 336.75711,31.0899759 337,30.720166 L337,30.720166 Z M290.635706,36.1913994 C290.3747,29.1734114 296.100786,22.9835663 302.711512,22.6320492 C311.149065,22.1837245 316.246598,29.6992271 316.385872,35.6914141 C316.577134,43.9241013 309.800392,49.4540377 304.101262,49.6988643 C296.928304,50.0068067 290.430538,43.6949975 290.635706,36.1913994 L290.635706,36.1913994 Z" id="Fill-4" fill="#FFFFFF"></path>
                    <path d="M781,234.279834 C783.440672,236.541638 785.767749,238.879984 788.279719,240.988702 C793.606071,245.459797 799.402068,249.174807 805.906021,251.625521 C810.799358,253.469453 815.869084,254.184596 821.080314,253.960085 C827.295155,253.692184 833.03708,251.755911 838.490546,248.841711 C845.234555,245.237956 851.214791,240.587741 856.504077,234.995423 C857.215958,234.242675 857.125038,233.851504 856.463523,233.147931 C849.815885,226.078376 842.189274,220.470037 833.220228,216.8714 C828.099918,214.816974 822.780979,213.724678 817.265156,214.059776 C811.620474,214.40244 806.277333,216.015408 801.216329,218.558908 C793.675187,222.348458 787.098628,227.470169 781.363899,233.730014 C781.291729,233.808783 781.24289,233.910024 781,234.279834 L781,234.279834 Z M827.364294,228.808601 C827.6253,235.826589 821.899214,242.016434 815.288488,242.367951 C806.850935,242.816275 801.753402,235.300773 801.614128,229.308586 C801.422866,221.075899 808.199608,215.545962 813.898738,215.301136 C821.071696,214.993193 827.569462,221.305002 827.364294,228.808601 L827.364294,228.808601 Z" id="Fill-4" fill="#FFFFFF"></path>
                    <path d="M323,331.279834 C320.559328,333.541638 318.232251,335.879984 315.720281,337.988702 C310.393929,342.459797 304.597932,346.174807 298.093979,348.625521 C293.200642,350.469453 288.130916,351.184596 282.919686,350.960085 C276.704845,350.692184 270.96292,348.755911 265.509454,345.841711 C258.765445,342.237956 252.785209,337.587741 247.495923,331.995423 C246.784042,331.242675 246.874962,330.851504 247.536477,330.147931 C254.184115,323.078376 261.810726,317.470037 270.779772,313.8714 C275.900082,311.816974 281.219021,310.724678 286.734844,311.059776 C292.379526,311.40244 297.722667,313.015408 302.783671,315.558908 C310.324813,319.348458 316.901372,324.470169 322.636101,330.730014 C322.708271,330.808783 322.75711,330.910024 323,331.279834 L323,331.279834 Z M276.635706,325.808601 C276.3747,332.826589 282.100786,339.016434 288.711512,339.367951 C297.149065,339.816275 302.246598,332.300773 302.385872,326.308586 C302.577134,318.075899 295.800392,312.545962 290.101262,312.301136 C282.928304,311.993193 276.430538,318.305002 276.635706,325.808601 L276.635706,325.808601 Z" id="Fill-4" fill="#FFFFFF"></path>
                    <path d="M642,50.1432116 C645.179297,47.2594119 648.21062,44.2780198 651.482791,41.589405 C658.421066,35.8887585 665.971115,31.1521211 674.44337,28.027461 C680.817585,25.6764479 687.42157,24.7646395 694.209883,25.0508917 C702.305531,25.3924652 709.785143,27.8612134 716.889,31.5768184 C725.673959,36.1716064 733.464004,42.1006305 740.353995,49.2308359 C741.281313,50.1905894 741.162878,50.6893321 740.301168,51.5863881 C731.641744,60.6000708 721.707081,67.7507025 710.023718,72.3389654 C703.353841,74.9583577 696.425223,76.3510358 689.240137,75.9237852 C681.887196,75.4868888 674.927053,73.4303552 668.334428,70.1873927 C658.511099,65.3557161 649.944266,58.8255339 642.474026,50.8442317 C642.380016,50.7438023 642.316396,50.6147193 642,50.1432116 L642,50.1432116 Z M702.417429,56.2757519 C702.756099,47.3597742 695.326179,39.4959075 686.74839,39.0493239 C675.800189,38.4797514 669.185853,48.0277948 669.005136,55.6405474 C668.756963,66.0997355 677.550169,73.1252234 684.945111,73.4362625 C694.252428,73.8274869 702.683646,65.8086714 702.417429,56.2757519 L702.417429,56.2757519 Z" id="Fill-3" fill="#FFFFFF"></path>
                    <path d="M628,350.856788 C631.179297,353.740588 634.21062,356.72198 637.482791,359.410595 C644.421066,365.111241 651.971115,369.847879 660.44337,372.972539 C666.817585,375.323552 673.42157,376.235361 680.209883,375.949108 C688.305531,375.607535 695.785143,373.138787 702.889,369.423182 C711.673959,364.828394 719.464004,358.89937 726.353995,351.769164 C727.281313,350.809411 727.162878,350.310668 726.301168,349.413612 C717.641744,340.399929 707.707081,333.249297 696.023718,328.661035 C689.353841,326.041642 682.425223,324.648964 675.240137,325.076215 C667.887196,325.513111 660.927053,327.569645 654.334428,330.812607 C644.511099,335.644284 635.944266,342.174466 628.474026,350.155768 C628.380016,350.256198 628.316396,350.385281 628,350.856788 L628,350.856788 Z M688.417429,344.724248 C688.756099,353.640226 681.326179,361.504092 672.74839,361.950676 C661.800189,362.520249 655.185853,352.972205 655.005136,345.359453 C654.756963,334.900265 663.550169,327.874777 670.945111,327.563737 C680.252428,327.172513 688.683646,335.191329 688.417429,344.724248 L688.417429,344.724248 Z" id="Fill-3" fill="#FFFFFF"></path>
                    <path d="M118.72,178 L119.008,178.672 L119.2,178.672 L119.488,178 L124.672,155.44 L134.848,155.44 L124.288,195.952 L124.288,226 L113.92,226 L113.92,195.952 L103.36,155.44 L113.536,155.44 L118.72,178 Z M166.336,211.504 C166.24,214.384 165.664,216.976 164.608,219.184 C163.744,221.104 162.4,222.928 160.48,224.368 C158.56,225.904 155.968,226.768 152.512,226.768 C149.056,226.768 146.368,225.904 144.448,224.368 C142.528,222.928 141.28,221.104 140.416,219.184 C139.36,216.976 138.784,214.384 138.688,211.504 L138.688,169.936 C138.784,167.152 139.36,164.56 140.416,162.352 C141.28,160.432 142.528,158.512 144.448,157.072 C146.368,155.632 149.056,154.672 152.512,154.672 C155.968,154.672 158.56,155.632 160.48,157.072 C162.4,158.512 163.744,160.432 164.608,162.352 C165.664,164.56 166.24,167.152 166.336,169.936 L166.336,211.504 Z M155.968,169.936 C155.968,168.016 155.584,166.672 154.624,165.52 C154.144,165.04 153.376,164.752 152.512,164.752 C150.688,164.752 149.824,166.096 149.44,167.344 C149.152,168.112 149.056,168.976 149.056,169.936 L149.056,211.504 C149.056,213.52 149.536,214.864 150.496,215.92 C150.976,216.4 151.648,216.688 152.512,216.688 C154.336,216.688 155.2,215.536 155.584,214.096 C155.872,213.424 155.968,212.56 155.968,211.504 L155.968,169.936 Z M200.896,155.44 L200.896,211.504 C200.8,214.384 200.224,216.976 199.168,219.184 C198.304,221.104 196.96,222.928 195.04,224.368 C193.12,225.904 190.528,226.768 187.072,226.768 C183.616,226.768 180.928,225.904 179.008,224.368 C177.088,222.928 175.84,221.104 174.976,219.184 C173.92,216.976 173.344,214.384 173.248,211.504 L173.248,155.44 L183.616,155.44 L183.616,211.504 C183.616,213.52 184.096,214.864 185.056,215.92 C185.536,216.4 186.208,216.688 187.072,216.688 C188.896,216.688 189.76,215.536 190.144,214.096 C190.432,213.424 190.528,212.56 190.528,211.504 L190.528,155.44 L200.896,155.44 Z M250.24,201.808 L250.24,211.504 C250.144,214.384 249.568,216.976 248.512,219.184 C247.648,221.104 246.304,222.928 244.384,224.368 C242.464,225.904 239.872,226.768 236.416,226.768 C232.96,226.768 230.272,225.904 228.352,224.368 C226.432,222.928 225.184,221.104 224.32,219.184 C223.264,216.976 222.688,214.384 222.592,211.504 L222.592,169.936 C222.688,167.152 223.264,164.56 224.32,162.352 C225.184,160.432 226.432,158.512 228.352,157.072 C230.272,155.632 232.96,154.672 236.416,154.672 C239.872,154.672 242.464,155.632 244.384,157.072 C246.304,158.512 247.648,160.432 248.512,162.352 C249.568,164.56 250.144,167.152 250.24,169.936 L250.24,179.632 L240.544,179.632 L240.544,169.936 C240.544,168.016 240.064,166.672 239.008,165.52 C238.528,165.04 237.664,164.752 236.608,164.752 C234.784,164.752 233.92,166.096 233.44,167.344 C233.152,168.112 233.056,168.976 232.96,169.936 L232.96,211.504 C233.056,213.52 233.632,214.864 234.592,215.92 C235.072,216.4 235.744,216.688 236.608,216.688 C238.816,216.688 239.68,215.536 240.16,214.096 C240.448,213.424 240.544,212.56 240.544,211.504 L240.544,201.808 L250.24,201.808 Z M253.6,226 L264.256,155.44 L276.928,155.44 L287.584,226 L277.504,226 L275.584,211.6 L265.6,211.6 L263.68,226 L253.6,226 Z M271.168,178.384 L270.88,176.56 L270.304,176.56 L270.016,178.384 L267.04,200.656 L274.144,200.656 L271.168,178.384 Z M303.328,189.232 L302.464,185.968 L301.888,185.968 L301.888,226 L292.384,226 L292.384,155.44 L301.6,155.44 L311.68,192.208 L312.544,195.472 L313.12,195.472 L313.12,155.44 L322.624,155.44 L322.624,226 L313.408,226 L303.328,189.232 Z M362.272,174.352 C362.272,172.048 362.176,169.456 361.504,167.44 C360.832,165.52 359.776,164.176 358.144,164.176 C355.456,164.272 354.592,167.056 354.592,171.184 C354.592,173.584 355.648,176.08 357.184,178.768 C358.72,181.456 360.736,184.24 362.752,187.216 C365.152,190.768 367.552,194.416 369.376,197.968 C371.2,201.52 372.448,205.168 372.448,209.008 C372.448,213.712 371.68,218.128 369.472,221.392 C367.264,224.656 363.712,226.768 358.048,226.768 C351.424,226.768 347.68,224.272 345.568,220.432 C343.456,216.592 342.976,211.504 342.976,206.224 L353.152,205.264 C353.152,208.24 353.248,211.216 354.016,213.424 C354.688,215.728 355.84,217.264 358.048,217.264 C361.12,217.264 362.272,214 362.272,209.488 C362.272,207.184 361.12,204.496 359.584,201.712 C358.72,200.368 357.856,198.928 356.896,197.488 C354.88,194.608 352.672,191.344 350.368,187.792 C348.064,184.24 346.336,180.592 345.28,176.848 C344.704,175.024 344.416,173.104 344.416,171.184 C344.416,167.344 345.28,163.216 347.488,160.048 C349.696,156.976 353.056,154.768 357.952,154.672 C364.192,154.576 367.84,157.168 369.856,160.912 C371.872,164.752 372.448,169.456 372.448,173.392 L362.272,174.352 Z M374.368,166.096 L374.368,155.44 L404.32,155.44 L404.32,166.096 L394.528,166.096 L394.528,226 L384.16,226 L384.16,166.096 L374.368,166.096 Z M435.328,211.504 C435.232,214.384 434.656,216.976 433.6,219.184 C432.736,221.104 431.392,222.928 429.472,224.368 C427.552,225.904 424.96,226.768 421.504,226.768 C418.048,226.768 415.36,225.904 413.44,224.368 C411.52,222.928 410.272,221.104 409.408,219.184 C408.352,216.976 407.776,214.384 407.68,211.504 L407.68,169.936 C407.776,167.152 408.352,164.56 409.408,162.352 C410.272,160.432 411.52,158.512 413.44,157.072 C415.36,155.632 418.048,154.672 421.504,154.672 C424.96,154.672 427.552,155.632 429.472,157.072 C431.392,158.512 432.736,160.432 433.6,162.352 C434.656,164.56 435.232,167.152 435.328,169.936 L435.328,211.504 Z M424.96,169.936 C424.96,168.016 424.576,166.672 423.616,165.52 C423.136,165.04 422.368,164.752 421.504,164.752 C419.68,164.752 418.816,166.096 418.432,167.344 C418.144,168.112 418.048,168.976 418.048,169.936 L418.048,211.504 C418.048,213.52 418.528,214.864 419.488,215.92 C419.968,216.4 420.64,216.688 421.504,216.688 C423.328,216.688 424.192,215.536 424.576,214.096 C424.864,213.424 424.96,212.56 424.96,211.504 L424.96,169.936 Z M442.336,155.44 L452.704,155.44 C457.216,155.44 461.728,156.592 465.184,159.856 C468.64,163.12 470.944,168.496 470.944,176.56 C470.944,184.624 468.64,189.904 465.184,193.168 C461.728,196.432 457.216,197.776 452.704,197.776 L452.704,226 L442.336,226 L442.336,155.44 Z M452.704,187.216 C455.872,187.216 457.888,186.64 459.04,185.008 C460.192,183.472 460.48,180.88 460.48,176.944 C460.48,173.008 460.192,170.224 459.04,168.496 C457.888,166.768 455.872,166 452.704,166 L452.704,187.216 Z M487.264,166.096 L487.264,155.44 L517.216,155.44 L517.216,166.096 L507.424,166.096 L507.424,226 L497.056,226 L497.056,166.096 L487.264,166.096 Z M539.68,195.28 L531.616,195.28 L531.616,226 L521.248,226 L521.248,155.44 L531.616,155.44 L531.616,184.624 L539.68,184.624 L539.68,155.44 L550.048,155.44 L550.048,226 L539.68,226 L539.68,195.28 Z M557.728,155.44 L581.44,155.44 L581.44,166.096 L568.096,166.096 L568.096,184.624 L577.696,184.624 L577.696,195.952 L568.096,195.952 L568.096,215.344 L581.44,215.344 L581.44,226 L557.728,226 L557.728,155.44 Z M619.168,174.352 C619.168,172.048 619.072,169.456 618.4,167.44 C617.728,165.52 616.672,164.176 615.04,164.176 C612.352,164.272 611.488,167.056 611.488,171.184 C611.488,173.584 612.544,176.08 614.08,178.768 C615.616,181.456 617.632,184.24 619.648,187.216 C622.048,190.768 624.448,194.416 626.272,197.968 C628.096,201.52 629.344,205.168 629.344,209.008 C629.344,213.712 628.576,218.128 626.368,221.392 C624.16,224.656 620.608,226.768 614.944,226.768 C608.32,226.768 604.576,224.272 602.464,220.432 C600.352,216.592 599.872,211.504 599.872,206.224 L610.048,205.264 C610.048,208.24 610.144,211.216 610.912,213.424 C611.584,215.728 612.736,217.264 614.944,217.264 C618.016,217.264 619.168,214 619.168,209.488 C619.168,207.184 618.016,204.496 616.48,201.712 C615.616,200.368 614.752,198.928 613.792,197.488 C611.776,194.608 609.568,191.344 607.264,187.792 C604.96,184.24 603.232,180.592 602.176,176.848 C601.6,175.024 601.312,173.104 601.312,171.184 C601.312,167.344 602.176,163.216 604.384,160.048 C606.592,156.976 609.952,154.768 614.848,154.672 C621.088,154.576 624.736,157.168 626.752,160.912 C628.768,164.752 629.344,169.456 629.344,173.392 L619.168,174.352 Z M634.912,155.44 L645.28,155.44 C649.792,155.44 654.304,156.592 657.76,159.856 C661.216,163.12 663.52,168.496 663.52,176.56 C663.52,184.624 661.216,189.904 657.76,193.168 C654.304,196.432 649.792,197.776 645.28,197.776 L645.28,226 L634.912,226 L634.912,155.44 Z M645.28,187.216 C648.448,187.216 650.464,186.64 651.616,185.008 C652.768,183.472 653.056,180.88 653.056,176.944 C653.056,173.008 652.768,170.224 651.616,168.496 C650.464,166.768 648.448,166 645.28,166 L645.28,187.216 Z M668.704,155.44 L679.072,155.44 L679.072,226 L668.704,226 L668.704,155.44 Z M686.752,155.44 L710.464,155.44 L710.464,166.096 L697.12,166.096 L697.12,184.624 L706.72,184.624 L706.72,195.952 L697.12,195.952 L697.12,215.344 L710.464,215.344 L710.464,226 L686.752,226 L686.752,155.44 Z M733.408,174.352 C733.408,172.048 733.312,169.456 732.64,167.44 C731.968,165.52 730.912,164.176 729.28,164.176 C726.592,164.272 725.728,167.056 725.728,171.184 C725.728,173.584 726.784,176.08 728.32,178.768 C729.856,181.456 731.872,184.24 733.888,187.216 C736.288,190.768 738.688,194.416 740.512,197.968 C742.336,201.52 743.584,205.168 743.584,209.008 C743.584,213.712 742.816,218.128 740.608,221.392 C738.4,224.656 734.848,226.768 729.184,226.768 C722.56,226.768 718.816,224.272 716.704,220.432 C714.592,216.592 714.112,211.504 714.112,206.224 L724.288,205.264 C724.288,208.24 724.384,211.216 725.152,213.424 C725.824,215.728 726.976,217.264 729.184,217.264 C732.256,217.264 733.408,214 733.408,209.488 C733.408,207.184 732.256,204.496 730.72,201.712 C729.856,200.368 728.992,198.928 728.032,197.488 C726.016,194.608 723.808,191.344 721.504,187.792 C719.2,184.24 717.472,180.592 716.416,176.848 C715.84,175.024 715.552,173.104 715.552,171.184 C715.552,167.344 716.416,163.216 718.624,160.048 C720.832,156.976 724.192,154.768 729.088,154.672 C735.328,154.576 738.976,157.168 740.992,160.912 C743.008,164.752 743.584,169.456 743.584,173.392 L733.408,174.352 Z" id="YOU-CAN-STOP-THE-SPI" fill="#EF6C00"></path>
                </g>
            </g>
        </g>
    </g>
</svg>