<?xml version="1.0" encoding="utf-8"?>
<!-- Generator: Adobe Illustrator 16.0.0, SVG Export Plug-In . SVG Version: 6.00 Build 0)  -->
<!DOCTYPE svg PUBLIC "-//W3C//DTD SVG 1.1//EN" "http://www.w3.org/Graphics/SVG/1.1/DTD/svg11.dtd">
<svg version="1.1" xmlns="http://www.w3.org/2000/svg" xmlns:xlink="http://www.w3.org/1999/xlink" x="0px" y="0px"
	 width="124.223px" height="64px" viewBox="0 0 124.223 64" enable-background="new 0 0 124.223 64" xml:space="preserve">
<g id="Layer_2">
</g>
<g id="Layer_1">
	<g>
		<g>
			<defs>
				<path id="SVGID_1_" d="M84.208,31.549c0.436-11.137-9.122-20.961-20.156-21.52C49.969,9.318,41.461,21.245,41.229,30.754
					C40.91,43.819,52.221,52.595,61.733,52.983C73.705,53.473,84.55,43.455,84.208,31.549z M0.222,31.553
					c3.982-3.619,7.779-7.36,11.877-10.734c8.69-7.154,18.147-13.098,28.759-17.02c7.984-2.949,16.255-4.094,24.758-3.735
					c10.14,0.43,19.508,3.527,28.406,8.189c11.003,5.766,20.76,13.207,29.391,22.154c1.161,1.205,1.013,1.831-0.066,2.956
					c-10.847,11.313-23.29,20.285-37.924,26.043c-8.354,3.287-17.032,5.035-26.032,4.498c-9.21-0.549-17.927-3.129-26.185-7.197
					C20.903,50.643,10.172,42.448,0.816,32.432C0.698,32.307,0.619,32.144,0.222,31.553z"/>
			</defs>
			<clipPath id="SVGID_2_">
				<use xlink:href="#SVGID_1_"  overflow="visible"/>
			</clipPath>
			
				<rect x="-4.778" y="-5" clip-path="url(#SVGID_2_)" fill-rule="evenodd" clip-rule="evenodd" fill="#FFFFFF" width="134" height="74"/>
		</g>
		<path fill="#FFFFFF" d="M51.34,40c-4.055-4.203-4.13-11.971-0.367-16.986c4.099-5.467,11.581-7.613,17.25-4.73
			C62.6,25.516,57.011,32.705,51.34,40"/>
		<path fill="#FFFFFF" d="M57.222,44.723C62.909,37.399,68.499,30.2,74.088,23c3.243,2.479,4.542,10.554,1.091,15.918
			C71.196,45.113,63.343,47.797,57.222,44.723"/>
	</g>
	<g>
	</g>
	<g>
	</g>
	<g>
	</g>
	<g>
	</g>
	<g>
	</g>
	<g>
	</g>
	<g>
	</g>
	<g>
	</g>
	<g>
	</g>
	<g>
	</g>
	<g>
	</g>
	<g>
	</g>
	<g>
	</g>
	<g>
	</g>
	<g>
	</g>
</g>
</svg>
