<?xml version="1.0" encoding="utf-8"?>
<!-- Generator: Adobe Illustrator 16.0.0, SVG Export Plug-In . SVG Version: 6.00 Build 0)  -->
<!DOCTYPE svg PUBLIC "-//W3C//DTD SVG 1.1//EN" "http://www.w3.org/Graphics/SVG/1.1/DTD/svg11.dtd">
<svg version="1.1" id="Layer_1" xmlns="http://www.w3.org/2000/svg" xmlns:xlink="http://www.w3.org/1999/xlink" x="0px" y="0px"
	 width="87px" height="45.833px" viewBox="0 0 87 45.833" enable-background="new 0 0 87 45.833" xml:space="preserve">
<g>
	<defs>
		<path id="SVGID_1_" d="M58.915,22.625c0.303-7.83-6.326-14.736-13.979-15.129c-9.768-0.501-15.668,7.885-15.83,14.571
			c-0.221,9.187,7.624,15.356,14.221,15.63C51.63,38.041,59.152,30.998,58.915,22.625z M0.667,22.629
			c2.762-2.545,5.395-5.176,8.238-7.548c6.027-5.03,12.585-9.21,19.945-11.967c5.537-2.074,11.274-2.879,17.17-2.626
			c7.033,0.301,13.53,2.48,19.701,5.758c7.632,4.055,14.398,9.286,20.384,15.577c0.806,0.847,0.703,1.287-0.046,2.079
			c-7.521,7.953-16.152,14.262-26.301,18.311c-5.795,2.312-11.813,3.541-18.055,3.164c-6.388-0.387-12.434-2.201-18.161-5.063
			C15.009,36.051,7.568,30.29,1.078,23.248C0.997,23.159,0.941,23.045,0.667,22.629z"/>
	</defs>
	<clipPath id="SVGID_2_">
		<use xlink:href="#SVGID_1_"  overflow="visible"/>
	</clipPath>
	
		<rect x="-4.333" y="-4.556" clip-path="url(#SVGID_2_)" fill-rule="evenodd" clip-rule="evenodd" fill="#ED5719" width="96" height="55"/>
</g>
<g>
	<defs>
		<path id="SVGID_3_" d="M35.849,28.444c-2.839-2.924-2.891-8.328-0.257-11.818c2.869-3.801,8.107-5.295,12.075-3.289
			C43.731,18.368,39.819,23.369,35.849,28.444"/>
	</defs>
	<clipPath id="SVGID_4_">
		<use xlink:href="#SVGID_3_"  overflow="visible"/>
	</clipPath>
	
		<rect x="28.667" y="7.444" clip-path="url(#SVGID_4_)" fill-rule="evenodd" clip-rule="evenodd" fill="#ED5719" width="24" height="26"/>
</g>
<g>
	<defs>
		<path id="SVGID_5_" d="M40.667,31.556c3.98-5.095,7.894-10.104,11.807-15.112c2.271,1.725,3.179,7.342,0.764,11.073
			C50.448,31.827,44.951,33.694,40.667,31.556"/>
	</defs>
	<clipPath id="SVGID_6_">
		<use xlink:href="#SVGID_5_"  overflow="visible"/>
	</clipPath>
	
		<rect x="35.667" y="11.444" clip-path="url(#SVGID_6_)" fill-rule="evenodd" clip-rule="evenodd" fill="#ED5719" width="24" height="26"/>
</g>
<g>
</g>
<g>
</g>
<g>
</g>
<g>
</g>
<g>
</g>
<g>
</g>
<g>
</g>
<g>
</g>
<g>
</g>
<g>
</g>
<g>
</g>
<g>
</g>
<g>
</g>
<g>
</g>
<g>
</g>
</svg>
