<?xml version="1.0" encoding="UTF-8" standalone="no"?>
<svg width="75px" height="58px" viewBox="0 0 75 58" version="1.1" xmlns="http://www.w3.org/2000/svg" xmlns:xlink="http://www.w3.org/1999/xlink" xmlns:sketch="http://www.bohemiancoding.com/sketch/ns">
    <!-- Generator: Sketch 3.0.4 (8053) - http://www.bohemiancoding.com/sketch -->
    <title>spies-logo</title>
    <desc>Created with Sketch.</desc>
    <defs></defs>
    <g id="style" stroke="none" stroke-width="1" fill="none" fill-rule="evenodd" sketch:type="MSPage">
        <g id="icons" sketch:type="MSArtboardGroup" transform="translate(-307.000000, -153.000000)" fill="#FFFFFF">
            <g id="STOP-THE-SPIES-2-+-Imported-Layers-5" sketch:type="MSLayerGroup" transform="translate(308.000000, 153.000000)">
                <g id="Imported-Layers-2" transform="translate(1.706415, 0.000000)" sketch:type="MSShapeGroup">
                    <path d="M0,17.9470899 C2.26506706,15.8886491 4.42471158,13.7605473 6.75594596,11.8414284 C11.6990694,7.77233753 17.0780472,4.39135107 23.1140442,2.16098542 C27.6553074,0.482844864 32.3602689,-0.167999079 37.1965533,0.0363262283 C42.9642388,0.280139579 48.2930347,2.04231879 53.3541261,4.69449774 C59.6129066,7.97423281 65.1628673,12.2063385 70.0715918,17.2958409 C70.7322532,17.9809078 70.6478747,18.3369077 70.0339553,18.9772215 C63.8646119,25.4111399 56.7867327,30.5152226 48.4630058,33.7903001 C43.7110999,35.6600083 38.7748562,36.6540944 33.6558937,36.3491252 C28.4173444,36.0372709 23.4586403,34.5693283 18.7617727,32.254519 C11.7632132,28.8056941 5.6598348,24.144485 0.337716359,18.4474742 C0.270739658,18.3757882 0.225414035,18.2836495 0,17.9470899 L0,17.9470899 Z M47.7714763,17.9445385 C48.0192704,11.6098251 42.583035,6.02262619 36.3069404,5.70533297 C28.2964906,5.30065741 23.456992,12.0844471 23.3247675,17.493232 C23.1431873,24.924381 29.5768952,29.9159202 34.9875387,30.1369104 C41.7974061,30.4148714 47.9662587,24.7175829 47.7714763,17.9445385 L47.7714763,17.9445385 Z" id="Fill-1"></path>
                    <path d="M29.0761187,22.7522043 C26.7693992,20.3610369 26.7268235,15.9428735 28.867056,13.0895342 C31.1984774,9.98095693 35.4544411,8.75943195 38.6787474,10.3993963 C35.4807497,14.5132221 32.3018308,18.6027963 29.0761187,22.7522043" id="Fill-2"></path>
                    <path d="M32.4218912,25.4386573 C35.6564076,21.2727341 38.8360503,17.1775254 42.0154905,13.0825175 C43.8603433,14.4925872 44.5986084,19.0854085 42.6363135,22.1365751 C40.3702891,25.6604435 35.9032384,27.1868303 32.4218912,25.4386573" id="Fill-3"></path>
                </g>
                <path d="M3.79772394,47.374272 C3.79772394,46.9520017 3.78012934,46.4769477 3.65696718,46.1074612 C3.53380502,45.7555693 3.34026448,45.509245 3.04115637,45.509245 C2.54850772,45.5268396 2.39015637,46.0370828 2.39015637,46.7936504 C2.39015637,47.2335153 2.58369691,47.6909747 2.86521042,48.1836234 C3.14672394,48.676272 3.51621042,49.1865153 3.88569691,49.7319477 C4.32556177,50.3829477 4.76542664,51.0515423 5.09972394,51.7025423 C5.43402123,52.3535423 5.66275096,53.0221369 5.66275096,53.7259207 C5.66275096,54.5880558 5.52199421,55.3974071 5.11731853,55.9956234 C4.71264286,56.5938396 4.06164286,56.9809207 3.02356177,56.9809207 C1.80953475,56.9809207 1.12334556,56.5234612 0.736264477,55.8196774 C0.349183396,55.1158936 0.261210423,54.1833801 0.261210423,53.2156774 L2.12623745,53.0397315 C2.12623745,53.5851639 2.14383204,54.1305963 2.2845888,54.535272 C2.40775096,54.9575423 2.6188861,55.2390558 3.02356177,55.2390558 C3.5865888,55.2390558 3.79772394,54.6408396 3.79772394,53.8138936 C3.79772394,53.3916234 3.5865888,52.8989747 3.30507529,52.3887315 C3.14672394,52.1424071 2.98837259,51.8784882 2.81242664,51.6145693 C2.44294015,51.0867315 2.03826448,50.4885153 1.61599421,49.8375153 C1.19372394,49.1865153 0.877021234,48.5179207 0.683480693,47.8317315 C0.577913126,47.4974342 0.525129342,47.1455423 0.525129342,46.7936504 C0.525129342,46.0898666 0.683480693,45.333299 1.08815637,44.7526774 C1.49283204,44.1896504 2.10864286,43.7849747 3.00596718,43.7673801 C4.14961583,43.7497855 4.81821042,44.2248396 5.18769691,44.9110288 C5.5571834,45.6148125 5.66275096,46.4769477 5.66275096,47.1983261 L3.79772394,47.374272 Z M6.01464286,45.8611369 L6.01464286,43.9081369 L11.5041564,43.9081369 L11.5041564,45.8611369 L9.70950772,45.8611369 L9.70950772,56.8401639 L7.8092915,56.8401639 L7.8092915,45.8611369 L6.01464286,45.8611369 Z M17.1872104,54.1833801 C17.1696158,54.711218 17.0640483,55.186272 16.8705077,55.5909477 C16.7121564,55.9428396 16.465832,56.2771369 16.1139402,56.5410558 C15.7620483,56.8225693 15.2869942,56.9809207 14.6535888,56.9809207 C14.0201834,56.9809207 13.5275347,56.8225693 13.1756429,56.5410558 C12.823751,56.2771369 12.5950212,55.9428396 12.4366699,55.5909477 C12.2431293,55.186272 12.1375618,54.711218 12.1199672,54.1833801 L12.1199672,46.5649207 C12.1375618,46.0546774 12.2431293,45.5796234 12.4366699,45.1749477 C12.5950212,44.8230558 12.823751,44.4711639 13.1756429,44.207245 C13.5275347,43.9433261 14.0201834,43.7673801 14.6535888,43.7673801 C15.2869942,43.7673801 15.7620483,43.9433261 16.1139402,44.207245 C16.465832,44.4711639 16.7121564,44.8230558 16.8705077,45.1749477 C17.0640483,45.5796234 17.1696158,46.0546774 17.1872104,46.5649207 L17.1872104,54.1833801 Z M15.2869942,46.5649207 C15.2869942,46.2130288 15.2166158,45.9667044 15.0406699,45.7555693 C14.9526969,45.6675963 14.8119402,45.6148125 14.6535888,45.6148125 C14.3192915,45.6148125 14.1609402,45.8611369 14.0905618,46.0898666 C14.037778,46.2306234 14.0201834,46.3889747 14.0201834,46.5649207 L14.0201834,54.1833801 C14.0201834,54.5528666 14.1081564,54.7991909 14.2841023,54.9927315 C14.3720753,55.0807044 14.4952374,55.1334882 14.6535888,55.1334882 C14.9878861,55.1334882 15.1462374,54.9223531 15.2166158,54.6584342 C15.2693996,54.535272 15.2869942,54.3769207 15.2869942,54.1833801 L15.2869942,46.5649207 Z M18.4716158,43.9081369 L20.371832,43.9081369 C21.198778,43.9081369 22.0257239,44.119272 22.6591293,44.7174882 C23.2925347,45.3157044 23.714805,46.3010017 23.714805,47.7789477 C23.714805,49.2568936 23.2925347,50.2245963 22.6591293,50.8228125 C22.0257239,51.4210288 21.198778,51.6673531 20.371832,51.6673531 L20.371832,56.8401639 L18.4716158,56.8401639 L18.4716158,43.9081369 Z M20.371832,49.7319477 C20.9524537,49.7319477 21.3219402,49.6263801 21.5330753,49.327272 C21.7442104,49.0457585 21.7969942,48.5707044 21.7969942,47.8493261 C21.7969942,47.1279477 21.7442104,46.6177044 21.5330753,46.3010017 C21.3219402,45.984299 20.9524537,45.8435423 20.371832,45.8435423 L20.371832,49.7319477 Z M26.7058861,45.8611369 L26.7058861,43.9081369 L32.1953996,43.9081369 L32.1953996,45.8611369 L30.400751,45.8611369 L30.400751,56.8401639 L28.5005347,56.8401639 L28.5005347,45.8611369 L26.7058861,45.8611369 Z M36.3125347,51.2098936 L34.8345888,51.2098936 L34.8345888,56.8401639 L32.9343726,56.8401639 L32.9343726,43.9081369 L34.8345888,43.9081369 L34.8345888,49.2568936 L36.3125347,49.2568936 L36.3125347,43.9081369 L38.212751,43.9081369 L38.212751,56.8401639 L36.3125347,56.8401639 L36.3125347,51.2098936 Z M39.6203185,43.9081369 L43.9661834,43.9081369 L43.9661834,45.8611369 L41.5205347,45.8611369 L41.5205347,49.2568936 L43.2799942,49.2568936 L43.2799942,51.3330558 L41.5205347,51.3330558 L41.5205347,54.8871639 L43.9661834,54.8871639 L43.9661834,56.8401639 L39.6203185,56.8401639 L39.6203185,43.9081369 Z M50.8808591,47.374272 C50.8808591,46.9520017 50.8632645,46.4769477 50.7401023,46.1074612 C50.6169402,45.7555693 50.4233996,45.509245 50.1242915,45.509245 C49.6316429,45.5268396 49.4732915,46.0370828 49.4732915,46.7936504 C49.4732915,47.2335153 49.666832,47.6909747 49.9483456,48.1836234 C50.2298591,48.676272 50.5993456,49.1865153 50.968832,49.7319477 C51.4086969,50.3829477 51.8485618,51.0515423 52.1828591,51.7025423 C52.5171564,52.3535423 52.7458861,53.0221369 52.7458861,53.7259207 C52.7458861,54.5880558 52.6051293,55.3974071 52.2004537,55.9956234 C51.795778,56.5938396 51.144778,56.9809207 50.1066969,56.9809207 C48.8926699,56.9809207 48.2064807,56.5234612 47.8193996,55.8196774 C47.4323185,55.1158936 47.3443456,54.1833801 47.3443456,53.2156774 L49.2093726,53.0397315 C49.2093726,53.5851639 49.2269672,54.1305963 49.3677239,54.535272 C49.4908861,54.9575423 49.7020212,55.2390558 50.1066969,55.2390558 C50.6697239,55.2390558 50.8808591,54.6408396 50.8808591,53.8138936 C50.8808591,53.3916234 50.6697239,52.8989747 50.3882104,52.3887315 C50.2298591,52.1424071 50.0715077,51.8784882 49.8955618,51.6145693 C49.5260753,51.0867315 49.1213996,50.4885153 48.6991293,49.8375153 C48.2768591,49.1865153 47.9601564,48.5179207 47.7666158,47.8317315 C47.6610483,47.4974342 47.6082645,47.1455423 47.6082645,46.7936504 C47.6082645,46.0898666 47.7666158,45.333299 48.1712915,44.7526774 C48.5759672,44.1896504 49.191778,43.7849747 50.0891023,43.7673801 C51.232751,43.7497855 51.9013456,44.2248396 52.270832,44.9110288 C52.6403185,45.6148125 52.7458861,46.4769477 52.7458861,47.1983261 L50.8808591,47.374272 Z M53.7663726,43.9081369 L55.6665888,43.9081369 C56.4935347,43.9081369 57.3204807,44.119272 57.9538861,44.7174882 C58.5872915,45.3157044 59.0095618,46.3010017 59.0095618,47.7789477 C59.0095618,49.2568936 58.5872915,50.2245963 57.9538861,50.8228125 C57.3204807,51.4210288 56.4935347,51.6673531 55.6665888,51.6673531 L55.6665888,56.8401639 L53.7663726,56.8401639 L53.7663726,43.9081369 Z M55.6665888,49.7319477 C56.2472104,49.7319477 56.6166969,49.6263801 56.827832,49.327272 C57.0389672,49.0457585 57.091751,48.5707044 57.091751,47.8493261 C57.091751,47.1279477 57.0389672,46.6177044 56.827832,46.3010017 C56.6166969,45.984299 56.2472104,45.8435423 55.6665888,45.8435423 L55.6665888,49.7319477 Z M59.9596699,43.9081369 L61.8598861,43.9081369 L61.8598861,56.8401639 L59.9596699,56.8401639 L59.9596699,43.9081369 Z M63.2674537,43.9081369 L67.6133185,43.9081369 L67.6133185,45.8611369 L65.1676699,45.8611369 L65.1676699,49.2568936 L66.9271293,49.2568936 L66.9271293,51.3330558 L65.1676699,51.3330558 L65.1676699,54.8871639 L67.6133185,54.8871639 L67.6133185,56.8401639 L63.2674537,56.8401639 L63.2674537,43.9081369 Z M71.8184266,47.374272 C71.8184266,46.9520017 71.800832,46.4769477 71.6776699,46.1074612 C71.5545077,45.7555693 71.3609672,45.509245 71.0618591,45.509245 C70.5692104,45.5268396 70.4108591,46.0370828 70.4108591,46.7936504 C70.4108591,47.2335153 70.6043996,47.6909747 70.8859131,48.1836234 C71.1674266,48.676272 71.5369131,49.1865153 71.9063996,49.7319477 C72.3462645,50.3829477 72.7861293,51.0515423 73.1204266,51.7025423 C73.4547239,52.3535423 73.6834537,53.0221369 73.6834537,53.7259207 C73.6834537,54.5880558 73.5426969,55.3974071 73.1380212,55.9956234 C72.7333456,56.5938396 72.0823456,56.9809207 71.0442645,56.9809207 C69.8302374,56.9809207 69.1440483,56.5234612 68.7569672,55.8196774 C68.3698861,55.1158936 68.2819131,54.1833801 68.2819131,53.2156774 L70.1469402,53.0397315 C70.1469402,53.5851639 70.1645347,54.1305963 70.3052915,54.535272 C70.4284537,54.9575423 70.6395888,55.2390558 71.0442645,55.2390558 C71.6072915,55.2390558 71.8184266,54.6408396 71.8184266,53.8138936 C71.8184266,53.3916234 71.6072915,52.8989747 71.325778,52.3887315 C71.1674266,52.1424071 71.0090753,51.8784882 70.8331293,51.6145693 C70.4636429,51.0867315 70.0589672,50.4885153 69.6366969,49.8375153 C69.2144266,49.1865153 68.8977239,48.5179207 68.7041834,47.8317315 C68.5986158,47.4974342 68.545832,47.1455423 68.545832,46.7936504 C68.545832,46.0898666 68.7041834,45.333299 69.1088591,44.7526774 C69.5135347,44.1896504 70.1293456,43.7849747 71.0266699,43.7673801 C72.1703185,43.7497855 72.8389131,44.2248396 73.2083996,44.9110288 C73.5778861,45.6148125 73.6834537,46.4769477 73.6834537,47.1983261 L71.8184266,47.374272 Z" id="STOP-THE-SPIES-2" sketch:type="MSShapeGroup"></path>
            </g>
        </g>
    </g>
</svg>